<svg width="184" height="184" viewBox="0 0 184 184" fill="none" xmlns="http://www.w3.org/2000/svg">
<g clip-path="url(#clip0_304_74)">
<path fill-rule="evenodd" clip-rule="evenodd" d="M106.844 105.292C108.104 105.55 109.371 105.797 110.45 105.945C129.678 108.675 151.111 106.387 168.606 97.9358C169.238 97.6241 169.537 96.8782 169.228 96.2382C168.918 95.5981 168.178 95.3511 167.545 95.6636C150.4 103.828 129.541 106.056 110.793 103.39C110.189 103.314 109.494 103.184 108.796 103.058C109.656 101.744 110.014 100.397 110.052 99.1216C110.056 97.1913 109.256 95.2742 107.923 93.5382C106.051 91.1166 103.22 89.0885 100.252 87.7661C97.9609 86.7728 95.5863 86.2399 93.7434 86.4037C92.2138 86.5028 91.0041 87.0539 90.177 87.9735C89.3104 88.9452 88.8619 90.4127 89.2518 92.5217C89.8416 96.1161 92.2543 98.8743 95.5609 100.974C97.976 102.502 100.83 103.625 103.637 104.461C102.868 104.953 101.973 105.437 100.95 105.915C93.0628 109.353 80.7234 108.883 67.6815 106.367C47.8426 102.521 26.3643 93.8435 16.3955 86.3856C15.8885 86.0065 15.0348 86.086 14.6073 86.6516C14.1799 87.2173 14.3397 88.0561 14.8466 88.4352C25.0685 96.0831 46.9291 104.954 67.2166 108.907C80.8416 111.526 93.7876 111.895 101.968 108.245C103.999 107.307 105.649 106.348 106.844 105.292ZM106.069 102.468C107.024 101.379 107.473 100.26 107.523 99.144C107.52 97.7471 106.851 96.3579 105.925 95.1332C104.325 93.0511 101.822 91.2878 99.2491 90.1424C97.4585 89.3619 95.589 88.8616 94.0925 88.917C93.265 88.9621 92.5773 89.1711 92.0886 89.6428C91.6757 90.1891 91.5931 90.9995 91.7218 92.0541C92.2758 94.996 94.3412 97.1624 96.9361 98.8033C99.6217 100.499 103.049 101.738 106.069 102.468Z" fill="black"/>
<path fill-rule="evenodd" clip-rule="evenodd" d="M167.494 95.7788C161.211 99.718 155.887 105.888 152.224 112.31C151.884 112.935 152.087 113.716 152.646 114.027C153.288 114.402 154.096 114.208 154.436 113.584C157.94 107.547 162.91 101.67 168.879 97.9715C169.446 97.5701 169.642 96.7865 169.289 96.2029C168.852 95.5564 168.062 95.3774 167.494 95.7788Z" fill="black"/>
<path fill-rule="evenodd" clip-rule="evenodd" d="M167.745 95.5078C160.826 97.1396 153.331 94.2811 147.342 90.8317C146.784 90.5208 145.975 90.7162 145.635 91.3412C145.295 91.9654 145.5 92.7455 146.143 93.12C152.6 96.8252 160.806 99.7895 168.362 98.0157C169.029 97.8324 169.433 97.1231 169.283 96.4464C169.134 95.769 168.412 95.3254 167.745 95.5078Z" fill="black"/>
</g>
<defs>
<clipPath id="clip0_304_74">
<rect width="130" height="130" fill="white" transform="translate(104.67 183.047) rotate(-142.922)"/>
</clipPath>
</defs>
</svg>
