<?xml version="1.0" encoding="UTF-8" standalone="no"?><!DOCTYPE svg PUBLIC "-//W3C//DTD SVG 1.1//EN" "http://www.w3.org/Graphics/SVG/1.1/DTD/svg11.dtd"><svg width="100%" height="100%" viewBox="0 0 613 185" version="1.1" xmlns="http://www.w3.org/2000/svg" xmlns:xlink="http://www.w3.org/1999/xlink" xml:space="preserve" xmlns:serif="http://www.serif.com/" style="fill-rule:evenodd;clip-rule:evenodd;stroke-linejoin:round;stroke-miterlimit:2;"><path d="M554.952,78.263l-417.699,10.475c-42.05,0.935 -83.637,2.336 -125.687,3.271c-15.421,-0 -15.421,23.362 -0,23.362c149.05,-3.738 298.105,-7.476 447.159,-11.214c34.697,-0.771 69.077,-1.86 103.663,-2.742c-50.671,17.454 -100.367,38.169 -148.836,61.646c-5.607,2.804 -7.008,10.748 -4.205,15.887c3.271,5.607 10.279,7.009 15.887,4.206c57.472,-28.503 117.28,-51.865 178.957,-71.023c8.878,-2.803 10.747,-12.616 5.14,-19.625c-35.044,-43.454 -95.787,-50.463 -134.101,-89.245c-10.747,-10.279 -27.101,6.075 -16.354,16.821c19.625,20.092 44.856,32.241 69.62,44.389c8.941,4.383 17.882,8.832 26.456,13.792Z" style="fill-rule:nonzero;"/></svg>