<?xml version="1.0" encoding="UTF-8" standalone="no"?><!DOCTYPE svg PUBLIC "-//W3C//DTD SVG 1.1//EN" "http://www.w3.org/Graphics/SVG/1.1/DTD/svg11.dtd"><svg width="100%" height="100%" viewBox="0 0 805 436" version="1.1" xmlns="http://www.w3.org/2000/svg" xmlns:xlink="http://www.w3.org/1999/xlink" xml:space="preserve" xmlns:serif="http://www.serif.com/" style="fill-rule:evenodd;clip-rule:evenodd;stroke-linecap:round;stroke-linejoin:round;stroke-miterlimit:1.5;"><path d="M802.04,432.907l0,-391.505c0,-21.7 -17.618,-39.319 -39.319,-39.319l-721.319,0c-21.7,0 -39.319,17.619 -39.319,39.319l0,391.505" style="fill:#fff;stroke:#000;stroke-width:4.17px;"/><g><path d="M748.147,145.696c-3.237,-0.606 16.317,0.102 13.116,0.917c-2.563,0.654 -5.888,0.372 -7.989,2.045c-0.081,0.064 -5.497,1.952 -5.36,2.002c0.675,0.242 4.465,0.816 7.832,1.381c2.619,0.44 4.983,0.875 5.427,1.144c0.049,0.03 -13.349,0.78 -13.582,1.793c-1.012,4.398 2.103,2.192 5.929,2.79c3.96,0.619 7.505,-0.416 10.545,-0.18" style="fill:none;stroke:#000;stroke-width:4.17px;"/><path d="M732.829,145.606c-6.941,2.119 -15.321,0.064 -15.321,0.064c-6.68,5.16 13.67,7.295 13.797,7.348c1.117,0.459 -14.616,2.52 -14.573,3.617c0.061,1.554 4.069,0.471 7.631,1.108c3.688,0.661 5.244,0.048 8.074,0.3" style="fill:none;stroke:#000;stroke-width:4.17px;"/><path d="M685.836,146.759c1.679,-1.973 19.414,-2.45 16.719,1.371c-0.22,0.312 -7.877,0.858 -10.341,1.627c-4.201,1.313 12.429,0.24 9.845,1.066c-3.441,1.1 -11.158,2.262 -13.101,4.904c-1.559,2.12 13.016,0.508 13.664,2.831" style="fill:none;stroke:#000;stroke-width:4.17px;"/><path d="M669.876,145.179c2.142,0.31 5.388,1.262 4.863,1.433c-3.459,1.126 -8.888,-0.393 -12.448,-0.751c-1.32,-0.133 -5.456,-1.165 -5.312,-0.633c0.188,0.69 2.057,1.208 2.471,1.403c3.04,1.433 6.314,2.885 9.463,3.823c1.092,0.325 2.132,0.574 3.252,0.595c0.47,0.009 1.872,-0.139 1.404,-0.102c-3.081,0.241 -7.3,-0.393 -10.177,0.961c-0.644,0.303 -3.482,1.708 -4.105,2.063c-0.078,0.044 10.655,-0.798 11.822,4.485" style="fill:none;stroke:#000;stroke-width:4.17px;"/><path d="M632.822,145.582c3.328,-0 6.663,-0.106 9.985,0.26c0.317,0.034 4.044,0.044 3.979,1.171c-0.07,1.215 -1.778,1.916 -2.355,2.2c-3.03,1.496 -7.325,3.083 -8.929,3.177c-1.102,0.065 -1.788,-0.004 -3.411,-0.38c-0.465,-0.108 -2.356,-0.719 -1.901,-0.893c1.421,-0.543 5.192,-0.66 6.383,0.791c0.492,0.599 3.353,2.355 4.519,3.112c0.525,0.34 4.52,1.965 4.507,3.025c-0.005,0.361 -11.321,-3.708 -13.143,-0.256" style="fill:none;stroke:#000;stroke-width:4.17px;"/><path d="M618.905,145.867c-3.764,0 -7.491,-0.071 -11.249,-0.285c-1.03,-0.059 -2.061,-0.108 -3.092,-0.15c-0.36,-0.015 -1.25,-0.136 -1.068,0.164c0.534,0.881 2.904,1.902 3.313,2.101c4.18,2.034 8.809,3.752 13.228,5.242c0.444,0.15 -0.941,0.017 -1.411,0.017l-14.297,0c0.925,0 13.609,2.109 13.05,2.06c-1.152,-0.101 -6.576,-0.479 -7.721,-0.226c-0.776,0.172 2.263,3.058 1.723,3.091c-1.086,0.068 -7.481,-0.134 -4.258,-0.134" style="fill:none;stroke:#000;stroke-width:4.17px;"/></g><rect x="3.796" y="109.617" width="795.486" height="325.703" style="fill:#f5f5f5;"/><path d="M51.068,157.294c5.981,-1.798 9.307,6.061 13.445,4.371c2.292,-0.936 3.04,-11.561 7.465,-8.659c2.217,1.454 11.344,10.012 15.715,10.856c7.101,1.371 9.354,-11.808 17.241,-10.94c7.22,0.795 9.378,11.954 18.78,10.939c7.915,-0.854 13.53,-10.471 20.995,-12.027c2.217,-0.462 4.212,11.415 7.989,11.779c8.78,0.845 7.797,-5.662 16.01,-6.374c7.836,-0.679 15.335,3.608 23.249,3.791" style="fill:none;stroke:#000;stroke-width:4.17px;"/><path d="M59.882,41.579c-2.589,0 -4.688,2.099 -4.688,4.688l0,5.208c0,2.589 2.099,4.687 4.688,4.687l5.208,0c2.589,0 4.688,-2.098 4.688,-4.687l-0,-5.208c-0,-2.589 -2.099,-4.688 -4.688,-4.688l-5.208,0Zm-0,18.75c-2.589,0 -4.688,2.099 -4.688,4.688l0,5.208c0,2.589 2.099,4.687 4.688,4.687l5.208,0c2.589,0 4.688,-2.098 4.688,-4.687l-0,-5.208c-0,-2.589 -2.099,-4.688 -4.688,-4.688l-5.208,0Zm18.75,-18.75c-2.589,0 -4.688,2.099 -4.688,4.688l0,5.208c0,2.589 2.099,4.687 4.688,4.687l5.208,0c2.589,0 4.688,-2.098 4.688,-4.687l-0,-5.208c-0,-2.589 -2.099,-4.688 -4.688,-4.688l-5.208,0Zm-0,18.75c-2.589,0 -4.688,2.099 -4.688,4.688l0,5.208c0,2.589 2.099,4.687 4.688,4.687l5.208,0c2.589,0 4.688,-2.098 4.688,-4.687l-0,-5.208c-0,-2.589 -2.099,-4.688 -4.688,-4.688l-5.208,0Z" style="fill:#0f172a;"/><path d="M741.124,146.685c-4.666,-0.873 23.517,0.148 18.903,1.323c-3.694,0.941 -8.486,0.535 -11.513,2.946c-0.117,0.093 -7.923,2.814 -7.725,2.885c0.972,0.349 6.434,1.176 11.287,1.991c3.775,0.634 7.181,1.261 7.821,1.649c0.071,0.043 -19.239,1.124 -19.575,2.583c-1.457,6.34 3.032,3.16 8.545,4.022c5.708,0.892 10.816,-0.6 15.198,-0.26" style="fill:none;stroke:#000;stroke-width:4.17px;"/><path d="M719.047,146.556c-10.003,3.054 -22.08,0.092 -22.08,0.092c-9.628,7.437 19.701,10.514 19.885,10.589c1.61,0.662 -21.065,3.632 -21.003,5.214c0.088,2.239 5.865,0.678 10.998,1.597c5.315,0.952 7.557,0.068 11.636,0.432" style="fill:none;stroke:#000;stroke-width:4.17px;"/><path d="M651.321,148.218c2.42,-2.844 27.98,-3.531 24.096,1.975c-0.317,0.449 -11.352,1.237 -14.904,2.346c-6.055,1.891 17.913,0.346 14.189,1.536c-4.959,1.585 -16.081,3.259 -18.881,7.067c-2.248,3.056 18.759,0.733 19.693,4.08" style="fill:none;stroke:#000;stroke-width:4.17px;"/><path d="M628.319,145.94c3.088,0.447 7.765,1.819 7.009,2.066c-4.984,1.622 -12.808,-0.567 -17.94,-1.083c-1.901,-0.191 -7.863,-1.679 -7.655,-0.913c0.271,0.995 2.964,1.742 3.561,2.023c4.381,2.066 9.099,4.158 13.638,5.509c1.574,0.469 3.072,0.828 4.687,0.859c0.677,0.012 2.698,-0.201 2.023,-0.148c-4.44,0.347 -10.52,-0.567 -14.667,1.385c-0.928,0.437 -5.018,2.462 -5.916,2.973c-0.112,0.064 15.356,-1.15 17.038,6.464" style="fill:none;stroke:#000;stroke-width:4.17px;"/><path d="M574.917,146.521c4.798,-0 9.604,-0.152 14.391,0.374c0.457,0.051 5.829,0.065 5.735,1.689c-0.102,1.75 -2.563,2.76 -3.395,3.171c-4.366,2.155 -10.556,4.443 -12.868,4.578c-1.588,0.093 -2.577,-0.006 -4.916,-0.548c-0.67,-0.156 -3.395,-1.037 -2.739,-1.287c2.047,-0.782 7.482,-0.951 9.199,1.141c0.708,0.863 4.832,3.393 6.513,4.484c0.756,0.491 6.514,2.832 6.495,4.359c-0.007,0.521 -16.315,-5.343 -18.942,-0.369" style="fill:none;stroke:#000;stroke-width:4.17px;"/><path d="M554.861,146.933c-5.425,-0 -10.796,-0.103 -16.213,-0.412c-1.484,-0.084 -2.97,-0.155 -4.455,-0.216c-0.519,-0.021 -1.802,-0.196 -1.539,0.237c0.769,1.269 4.185,2.741 4.773,3.027c6.025,2.932 12.696,5.408 19.065,7.555c0.64,0.216 -1.356,0.025 -2.033,0.025l-20.606,0c1.334,0 19.614,3.039 18.809,2.968c-1.661,-0.145 -9.477,-0.69 -11.129,-0.325c-1.117,0.247 3.262,4.407 2.484,4.455c-1.566,0.098 -10.782,-0.193 -6.136,-0.193" style="fill:none;stroke:#000;stroke-width:4.17px;"/><path d="M203.485,432.907c0.325,-1.726 0.665,-3.45 1.018,-5.164c10.918,-53.071 58.268,-85.748 100.272,-119.963c36.864,-30.025 75.12,-63.987 122.605,-61.579c46.452,2.356 81.222,38.902 112.308,73.494c29.305,32.594 50.329,69.89 56.438,113.212l-392.641,0Z" style="fill:#f68e5a;"/><path d="M171.036,434.163c2.323,-23.293 11.28,-46.211 26.699,-68.245c15.557,-22.247 37.281,-42.665 62.83,-59.047c32.981,-21.147 73.514,-18.992 112.711,-16.909c10.982,0.583 22.332,1.187 33.399,1.278c12.396,0.107 25.563,-0.836 38.298,-1.743c38.858,-2.77 79.03,-5.633 105.435,19.933c25.924,25.097 21.222,61.537 16.675,96.78c-1.19,9.242 -2.412,18.723 -3.069,27.953l-2.838,-0c0.659,-9.37 1.899,-18.963 3.106,-28.313c4.455,-34.551 9.059,-70.276 -15.84,-94.389c-25.492,-24.686 -65.035,-21.866 -103.271,-19.144c-12.785,0.912 -26.001,1.863 -38.525,1.752c-11.123,-0.092 -22.508,-0.698 -33.526,-1.283c-12.304,-0.653 -24.41,-1.297 -36.198,-1.297c-27.027,-0 -52.399,3.381 -74.83,17.764c-50.97,32.683 -83.339,78.808 -88.197,124.91l-2.859,-0Z" style="fill-rule:nonzero;stroke:#000;stroke-width:2.08px;stroke-linecap:butt;stroke-miterlimit:2;"/><path d="M429.082,433.185c-1.179,-1.545 -3.065,-2.894 -5.658,-4.047c-4.756,-2.245 -10.039,-3.83 -15.851,-4.755c-15.323,-2.245 -22.984,-4.887 -22.984,-7.925c-0,-1.057 0.198,-1.85 0.594,-2.378c1.057,-1.849 4.425,-4.425 10.105,-7.727c5.68,-3.303 11.426,-6.539 17.238,-9.709c5.944,-3.17 11.36,-7.331 16.247,-12.483c4.888,-5.151 7.332,-10.369 7.332,-15.653c-0,-6.208 -3.369,-9.312 -10.105,-9.312c-5.416,-0 -12.285,2.179 -20.607,6.538c-8.321,4.227 -13.077,6.341 -14.266,6.341c-1.056,-0 -3.104,-1.387 -6.142,-4.161c-3.038,-2.906 -4.557,-5.086 -4.557,-6.539c-0,-3.962 5.35,-8.057 16.049,-12.284c10.832,-4.227 20.408,-6.34 28.73,-6.34c8.322,-0 15.323,2.84 21.003,8.519c5.812,5.68 8.718,12.219 8.718,19.616c-0,7.265 -4.161,14.728 -12.483,22.39c-8.322,7.529 -17.964,13.869 -28.928,19.021c12.02,1.585 21.597,4.557 28.73,8.916c5.245,3.205 8.561,7.196 9.949,11.972l-23.114,0Z" style="fill-rule:nonzero;"/></svg>