<?xml version="1.0" encoding="UTF-8" standalone="no"?><!DOCTYPE svg PUBLIC "-//W3C//DTD SVG 1.1//EN" "http://www.w3.org/Graphics/SVG/1.1/DTD/svg11.dtd"><svg width="100%" height="100%" viewBox="0 0 571 291" version="1.1" xmlns="http://www.w3.org/2000/svg" xmlns:xlink="http://www.w3.org/1999/xlink" xml:space="preserve" xmlns:serif="http://www.serif.com/" style="fill-rule:evenodd;clip-rule:evenodd;stroke-linejoin:round;stroke-miterlimit:2;"><path d="M38.073,290.629c1.373,-16.876 3.843,-33.551 7.139,-49.573c14.488,-70.422 77.319,-113.782 133.057,-159.184c48.915,-39.841 99.679,-84.907 162.689,-81.711c61.639,3.126 107.777,51.62 149.026,97.522c39.251,43.656 67.307,93.67 75.114,151.847c1.796,13.391 3.701,27.184 5.271,41.099l-532.296,0Z" style="fill:#f68e5a;"/><path d="M2.201,290.853c-1.649,-9.551 -2.412,-19.33 -2.151,-29.332c0.92,-35.009 13.09,-69.502 36.183,-102.503c20.643,-29.521 49.469,-56.613 83.371,-78.352c43.764,-28.061 97.549,-25.202 149.561,-22.437c14.573,0.774 29.633,1.575 44.318,1.696c16.449,0.142 33.921,-1.11 50.82,-2.314c51.562,-3.674 104.869,-7.473 139.907,26.45c34.399,33.304 28.159,81.656 22.125,128.423c-2.101,16.327 -4.278,33.217 -4.663,49.131c-0.23,9.691 -0.119,19.542 0.069,29.238l-3.755,-0c-0.19,-9.713 -0.304,-19.588 -0.067,-29.332c0.384,-16.111 2.58,-33.095 4.701,-49.516c5.911,-45.847 12.02,-93.252 -21.019,-125.248c-33.827,-32.757 -86.299,-29.015 -137.035,-25.403c-16.965,1.21 -34.503,2.472 -51.12,2.325c-14.76,-0.122 -29.868,-0.926 -44.487,-1.702c-16.327,-0.867 -32.391,-1.722 -48.034,-1.722c-35.863,-0 -69.53,4.486 -99.294,23.572c-72.074,46.215 -116.12,112.686 -117.827,177.788c-0.261,9.96 0.524,19.703 2.214,29.238l-3.817,-0Z" style="fill-rule:nonzero;"/><path d="M325.315,289.577c1.372,-2.834 2.058,-5.794 2.058,-8.877c0,-4.752 -3.33,-8.59 -9.991,-11.514c-6.661,-3.107 -14.061,-5.301 -22.203,-6.58c-21.462,-3.107 -32.193,-6.762 -32.193,-10.966c-0,-1.462 0.277,-2.559 0.833,-3.29c1.48,-2.558 6.198,-6.122 14.154,-10.691c7.955,-4.569 16.004,-9.047 24.145,-13.433c8.326,-4.387 15.912,-10.144 22.757,-17.272c6.846,-7.127 10.269,-14.347 10.269,-21.657c-0,-8.59 -4.718,-12.885 -14.154,-12.885c-7.586,-0 -17.207,3.015 -28.863,9.047c-11.657,5.848 -18.317,8.772 -19.983,8.772c-1.48,0 -4.347,-1.919 -8.603,-5.757c-4.256,-4.021 -6.383,-7.036 -6.383,-9.047c-0,-5.482 7.493,-11.148 22.48,-16.997c15.171,-5.848 28.585,-8.772 40.242,-8.772c11.656,-0 21.462,3.929 29.418,11.788c8.141,7.859 12.211,16.906 12.211,27.14c0,10.052 -5.828,20.379 -17.484,30.979c-11.656,10.418 -25.163,19.19 -40.52,26.318c16.837,2.193 30.251,6.306 40.242,12.337c9.991,6.031 14.987,14.073 14.987,24.125c0,2.416 -0.355,4.826 -1.066,7.232l-32.353,-0Z" style="fill-rule:nonzero;"/></svg>