<?xml version="1.0" encoding="UTF-8" standalone="no"?><!DOCTYPE svg PUBLIC "-//W3C//DTD SVG 1.1//EN" "http://www.w3.org/Graphics/SVG/1.1/DTD/svg11.dtd"><svg width="100%" height="100%" viewBox="0 0 427 274" version="1.1" xmlns="http://www.w3.org/2000/svg" xmlns:xlink="http://www.w3.org/1999/xlink" xml:space="preserve" xmlns:serif="http://www.serif.com/" style="fill-rule:evenodd;clip-rule:evenodd;stroke-linejoin:round;stroke-miterlimit:2;"><g><path d="M33.491,271.01c0.325,-1.726 0.665,-3.45 1.017,-5.164c10.919,-53.071 58.269,-85.748 100.273,-119.963c36.863,-30.025 75.12,-63.987 122.604,-61.579c46.453,2.356 81.223,38.902 112.309,73.494c29.304,32.594 50.329,69.89 56.438,113.212l-392.641,0Z" style="fill:#faaa75;"/><path d="M1.042,272.266c2.323,-23.293 11.28,-46.211 26.699,-68.246c15.557,-22.246 37.28,-42.664 62.829,-59.046c32.982,-21.147 73.515,-18.992 112.712,-16.909c10.982,0.583 22.331,1.187 33.398,1.278c12.397,0.107 25.563,-0.836 38.299,-1.743c38.858,-2.77 79.03,-5.633 105.435,19.932c25.924,25.098 21.221,61.537 16.674,96.781c-1.189,9.242 -2.411,18.723 -3.068,27.953l-2.838,-0c0.659,-9.37 1.899,-18.963 3.106,-28.313c4.455,-34.551 9.059,-70.276 -15.84,-94.389c-25.492,-24.686 -65.036,-21.866 -103.271,-19.144c-12.785,0.912 -26.002,1.863 -38.525,1.752c-11.123,-0.092 -22.508,-0.698 -33.526,-1.283c-12.304,-0.653 -24.41,-1.297 -36.198,-1.297c-27.027,-0 -52.4,3.38 -74.83,17.764c-50.97,32.682 -83.339,78.808 -88.197,124.91l-2.859,-0Z" style="fill-rule:nonzero;stroke:#000;stroke-width:2.08px;"/><path d="M259.088,271.288c-1.179,-1.545 -3.065,-2.894 -5.658,-4.047c-4.756,-2.245 -10.039,-3.83 -15.851,-4.755c-15.323,-2.246 -22.984,-4.887 -22.984,-7.925c-0,-1.057 0.198,-1.85 0.594,-2.378c1.057,-1.849 4.425,-4.425 10.105,-7.727c5.68,-3.303 11.426,-6.539 17.238,-9.709c5.944,-3.17 11.36,-7.331 16.247,-12.483c4.888,-5.151 7.331,-10.369 7.331,-15.653c0,-6.208 -3.368,-9.312 -10.105,-9.312c-5.415,-0 -12.284,2.179 -20.606,6.538c-8.322,4.227 -13.077,6.341 -14.266,6.341c-1.057,-0 -3.104,-1.387 -6.142,-4.161c-3.038,-2.906 -4.557,-5.086 -4.557,-6.539c-0,-3.962 5.349,-8.057 16.049,-12.284c10.831,-4.227 20.408,-6.341 28.73,-6.341c8.322,0 15.323,2.84 21.002,8.52c5.813,5.68 8.718,12.219 8.718,19.616c0,7.265 -4.16,14.728 -12.482,22.389c-8.322,7.53 -17.965,13.87 -28.928,19.022c12.02,1.585 21.597,4.557 28.73,8.916c5.244,3.205 8.561,7.196 9.949,11.972l-23.114,0Z" style="fill-rule:nonzero;"/></g><g><path d="M366.564,25.89c0,-14.289 -11.601,-25.89 -25.89,-25.89l-254.175,0c-14.289,0 -25.889,11.601 -25.889,25.89c-0,14.288 11.6,25.889 25.889,25.889l254.175,0c14.289,0 25.89,-11.601 25.89,-25.889Z"/><g><path d="M151.331,32.034c0,1.346 -0.325,2.485 -0.975,3.414c-0.65,0.93 -1.606,1.635 -2.868,2.116c-1.262,0.481 -2.804,0.722 -4.626,0.722c-1.415,-0 -2.633,-0.101 -3.654,-0.302c-1.02,-0.202 -1.995,-0.511 -2.926,-0.926l0,-4.005c0.987,0.462 2.092,0.859 3.315,1.188c1.223,0.33 2.36,0.495 3.411,0.495c1.316,-0 2.26,-0.203 2.831,-0.608c0.571,-0.405 0.856,-0.941 0.856,-1.607c0,-0.407 -0.11,-0.771 -0.33,-1.093c-0.221,-0.322 -0.66,-0.668 -1.318,-1.037c-0.658,-0.369 -1.65,-0.819 -2.975,-1.35c-1.284,-0.531 -2.357,-1.058 -3.22,-1.581c-0.863,-0.524 -1.513,-1.155 -1.951,-1.894c-0.437,-0.739 -0.656,-1.674 -0.656,-2.805c-0,-1.825 0.721,-3.207 2.163,-4.148c1.442,-0.941 3.35,-1.411 5.725,-1.411c1.256,0 2.442,0.123 3.559,0.368c1.117,0.245 2.232,0.627 3.344,1.146l-1.476,3.489c-0.943,-0.396 -1.87,-0.732 -2.779,-1.005c-0.909,-0.273 -1.836,-0.41 -2.78,-0.41c-1.023,-0 -1.797,0.152 -2.323,0.458c-0.526,0.305 -0.789,0.739 -0.789,1.302c0,0.41 0.128,0.77 0.383,1.079c0.255,0.31 0.717,0.627 1.386,0.95c0.669,0.324 1.618,0.735 2.846,1.235c1.213,0.475 2.253,0.967 3.122,1.474c0.869,0.508 1.537,1.134 2.005,1.878c0.467,0.744 0.7,1.7 0.7,2.868Z" style="fill:#fff;fill-rule:nonzero;"/><path d="M164.487,34.488c0.579,-0 1.146,-0.056 1.702,-0.167c0.556,-0.11 1.074,-0.239 1.555,-0.386l0,3.541c-0.506,0.221 -1.158,0.412 -1.955,0.571c-0.798,0.159 -1.637,0.239 -2.518,0.239c-1.159,-0 -2.206,-0.193 -3.14,-0.579c-0.934,-0.386 -1.68,-1.056 -2.238,-2.011c-0.557,-0.954 -0.836,-2.283 -0.836,-3.985l-0,-10.556l-2.734,0l0,-2.066l3.004,-1.662l1.5,-4.299l2.955,0l-0,4.449l5.765,0l0,3.578l-5.765,0l-0,10.527c-0,0.945 0.25,1.649 0.752,2.112c0.502,0.462 1.153,0.694 1.953,0.694Z" style="fill:#fff;fill-rule:nonzero;"/><path d="M175.971,17.577l0,20.334l-4.725,-0l0,-20.334l4.725,0Zm-2.336,-7.841c0.702,0 1.313,0.184 1.833,0.553c0.52,0.369 0.78,1.018 0.78,1.95c-0,0.899 -0.26,1.539 -0.78,1.92c-0.52,0.381 -1.131,0.572 -1.833,0.572c-0.741,-0 -1.365,-0.191 -1.87,-0.572c-0.505,-0.381 -0.758,-1.021 -0.758,-1.92c0,-0.932 0.253,-1.581 0.758,-1.95c0.505,-0.369 1.129,-0.553 1.87,-0.553Z" style="fill:#fff;fill-rule:nonzero;"/><path d="M189.95,34.488c0.578,-0 1.145,-0.056 1.701,-0.167c0.556,-0.11 1.075,-0.239 1.556,-0.386l-0,3.541c-0.506,0.221 -1.158,0.412 -1.956,0.571c-0.798,0.159 -1.637,0.239 -2.517,0.239c-1.159,-0 -2.206,-0.193 -3.14,-0.579c-0.934,-0.386 -1.68,-1.056 -2.238,-2.011c-0.558,-0.954 -0.837,-2.283 -0.837,-3.985l0,-10.556l-2.733,0l-0,-2.066l3.004,-1.662l1.499,-4.299l2.955,0l0,4.449l5.766,0l-0,3.578l-5.766,0l0,10.527c0,0.945 0.251,1.649 0.753,2.112c0.502,0.462 1.153,0.694 1.953,0.694Z" style="fill:#fff;fill-rule:nonzero;"/><path d="M204.935,38.286c-1.931,-0 -3.602,-0.366 -5.013,-1.099c-1.41,-0.733 -2.498,-1.87 -3.262,-3.41c-0.764,-1.541 -1.147,-3.514 -1.147,-5.92c0,-2.491 0.421,-4.519 1.261,-6.085c0.841,-1.565 1.999,-2.718 3.474,-3.459c1.474,-0.741 3.166,-1.111 5.075,-1.111c1.259,0 2.39,0.126 3.395,0.377c1.004,0.252 1.861,0.551 2.57,0.898l-1.409,3.719c-0.772,-0.304 -1.546,-0.563 -2.322,-0.778c-0.777,-0.216 -1.531,-0.323 -2.262,-0.323c-1.116,-0 -2.042,0.252 -2.777,0.757c-0.734,0.505 -1.279,1.253 -1.634,2.246c-0.356,0.993 -0.533,2.233 -0.533,3.721c-0,1.444 0.185,2.655 0.556,3.632c0.37,0.977 0.918,1.71 1.644,2.2c0.725,0.489 1.616,0.734 2.673,0.734c1.147,-0 2.159,-0.14 3.035,-0.419c0.876,-0.28 1.711,-0.652 2.505,-1.118l-0,4.07c-0.784,0.475 -1.621,0.822 -2.512,1.04c-0.89,0.219 -1.996,0.328 -3.317,0.328Z" style="fill:#fff;fill-rule:nonzero;"/><path d="M220.559,16.185c-0,0.802 -0.027,1.585 -0.08,2.35c-0.053,0.765 -0.105,1.34 -0.155,1.724l0.272,-0c0.441,-0.7 0.971,-1.271 1.589,-1.713c0.619,-0.442 1.309,-0.775 2.07,-0.997c0.761,-0.222 1.559,-0.333 2.393,-0.333c1.532,0 2.846,0.26 3.941,0.781c1.095,0.52 1.937,1.324 2.526,2.413c0.589,1.088 0.883,2.505 0.883,4.252l0,13.249l-4.711,-0l0,-12.302c0,-1.538 -0.302,-2.687 -0.906,-3.444c-0.605,-0.758 -1.553,-1.137 -2.846,-1.137c-1.268,0 -2.261,0.268 -2.979,0.805c-0.719,0.536 -1.231,1.322 -1.538,2.358c-0.306,1.036 -0.459,2.305 -0.459,3.808l-0,9.912l-4.725,-0l-0,-28.5l4.725,-0l-0,6.774Z" style="fill:#fff;fill-rule:nonzero;"/><path d="M263.422,17.202c2.306,0 4.041,0.589 5.205,1.767c1.164,1.178 1.746,3.075 1.746,5.691l-0,13.251l-4.711,-0l-0,-12.34c-0,-1.502 -0.281,-2.635 -0.842,-3.398c-0.56,-0.763 -1.434,-1.145 -2.619,-1.145c-1.651,0 -2.83,0.539 -3.535,1.618c-0.705,1.078 -1.057,2.642 -1.057,4.69l-0,10.575l-4.711,-0l-0,-12.333c-0,-1.002 -0.127,-1.839 -0.38,-2.512c-0.253,-0.674 -0.633,-1.182 -1.14,-1.524c-0.506,-0.342 -1.161,-0.514 -1.963,-0.514c-1.139,0 -2.042,0.27 -2.708,0.809c-0.666,0.539 -1.141,1.322 -1.424,2.346c-0.283,1.025 -0.424,2.288 -0.424,3.79l-0,9.938l-4.725,-0l-0,-20.334l3.667,0l0.656,2.668l0.252,-0c0.425,-0.7 0.948,-1.274 1.567,-1.72c0.62,-0.447 1.309,-0.779 2.067,-0.997c0.759,-0.217 1.53,-0.326 2.314,-0.326c1.519,0 2.802,0.256 3.847,0.767c1.045,0.511 1.829,1.303 2.351,2.375l0.374,-0c0.644,-1.088 1.531,-1.884 2.663,-2.387c1.131,-0.503 2.308,-0.755 3.53,-0.755Z" style="fill:#fff;fill-rule:nonzero;"/><path d="M284.424,17.193c2.637,0 4.633,0.573 5.987,1.718c1.354,1.145 2.031,2.923 2.031,5.336l0,13.664l-3.334,-0l-0.919,-2.803l-0.15,-0c-0.575,0.725 -1.168,1.327 -1.781,1.807c-0.612,0.48 -1.312,0.828 -2.1,1.045c-0.787,0.217 -1.751,0.326 -2.891,0.326c-1.2,-0 -2.282,-0.224 -3.244,-0.673c-0.963,-0.448 -1.719,-1.139 -2.269,-2.074c-0.55,-0.934 -0.825,-2.115 -0.825,-3.543c0,-2.108 0.772,-3.691 2.316,-4.748c1.543,-1.056 3.883,-1.634 7.017,-1.734l3.507,-0.113l-0,-1.013c-0,-1.301 -0.312,-2.23 -0.936,-2.787c-0.624,-0.556 -1.497,-0.835 -2.62,-0.835c-1.019,0 -2.003,0.149 -2.953,0.446c-0.95,0.297 -1.876,0.653 -2.779,1.069l-1.526,-3.293c1.014,-0.537 2.165,-0.97 3.451,-1.3c1.285,-0.33 2.625,-0.495 4.018,-0.495Zm0.859,11.192c-2.064,0.069 -3.496,0.422 -4.295,1.06c-0.799,0.638 -1.199,1.501 -1.199,2.589c0,0.954 0.286,1.642 0.856,2.066c0.571,0.424 1.308,0.636 2.212,0.636c1.389,-0 2.552,-0.399 3.49,-1.196c0.939,-0.797 1.408,-1.969 1.408,-3.514l-0,-1.73l-2.472,0.089Z" style="fill:#fff;fill-rule:nonzero;"/><path d="M306.387,34.488c0.579,-0 1.146,-0.056 1.702,-0.167c0.556,-0.11 1.074,-0.239 1.555,-0.386l0,3.541c-0.506,0.221 -1.158,0.412 -1.955,0.571c-0.798,0.159 -1.637,0.239 -2.518,0.239c-1.159,-0 -2.206,-0.193 -3.14,-0.579c-0.934,-0.386 -1.68,-1.056 -2.238,-2.011c-0.557,-0.954 -0.836,-2.283 -0.836,-3.985l-0,-10.556l-2.734,0l0,-2.066l3.004,-1.662l1.5,-4.299l2.955,0l-0,4.449l5.765,0l0,3.578l-5.765,0l-0,10.527c-0,0.945 0.25,1.649 0.752,2.112c0.502,0.462 1.153,0.694 1.953,0.694Z" style="fill:#fff;fill-rule:nonzero;"/><path d="M321.329,17.202c1.834,0 3.409,0.367 4.724,1.102c1.316,0.735 2.332,1.787 3.049,3.157c0.717,1.37 1.075,3.022 1.075,4.957l0,2.431l-13.411,-0c0.05,1.839 0.561,3.263 1.533,4.271c0.972,1.008 2.326,1.513 4.061,1.513c1.306,-0 2.48,-0.127 3.522,-0.38c1.042,-0.253 2.12,-0.636 3.232,-1.149l-0,3.776c-1.01,0.481 -2.049,0.836 -3.12,1.064c-1.07,0.228 -2.355,0.342 -3.854,0.342c-1.994,-0 -3.757,-0.384 -5.289,-1.151c-1.533,-0.767 -2.733,-1.923 -3.6,-3.469c-0.867,-1.545 -1.3,-3.469 -1.3,-5.772c-0,-2.324 0.392,-4.278 1.177,-5.861c0.784,-1.583 1.88,-2.783 3.287,-3.602c1.408,-0.819 3.046,-1.229 4.914,-1.229Zm0.009,3.495c-1.263,-0 -2.289,0.409 -3.077,1.226c-0.787,0.818 -1.253,2.026 -1.398,3.623l8.743,0c0,-0.947 -0.155,-1.784 -0.466,-2.509c-0.312,-0.725 -0.781,-1.297 -1.407,-1.714c-0.627,-0.418 -1.425,-0.626 -2.395,-0.626Z" style="fill:#fff;fill-rule:nonzero;"/></g><path d="M101.833,37.847l-0.012,-0.006l-0.029,-0.016c-0.025,-0.013 -0.06,-0.032 -0.105,-0.058c-0.091,-0.05 -0.221,-0.124 -0.386,-0.221c-0.328,-0.193 -0.794,-0.478 -1.351,-0.848c-1.111,-0.739 -2.597,-1.825 -4.086,-3.214c-2.948,-2.748 -6.071,-6.83 -6.071,-11.859c-0,-3.751 3.156,-6.726 6.966,-6.726c2.241,-0 4.247,1.023 5.525,2.628c1.278,-1.605 3.285,-2.628 5.525,-2.628c3.81,-0 6.967,2.975 6.967,6.726c-0,5.029 -3.124,9.111 -6.071,11.859c-1.49,1.389 -2.975,2.475 -4.087,3.214c-0.557,0.37 -1.023,0.655 -1.351,0.848c-0.164,0.097 -0.295,0.171 -0.385,0.221c-0.046,0.026 -0.081,0.045 -0.106,0.058l-0.029,0.016l-0.011,0.006c-0.282,0.15 -0.621,0.15 -0.903,0Z" style="fill:#fff;fill-rule:nonzero;"/></g></svg>