<?xml version="1.0" encoding="UTF-8" standalone="no"?><!DOCTYPE svg PUBLIC "-//W3C//DTD SVG 1.1//EN" "http://www.w3.org/Graphics/SVG/1.1/DTD/svg11.dtd"><svg width="100%" height="100%" viewBox="0 0 803 435" version="1.1" xmlns="http://www.w3.org/2000/svg" xmlns:xlink="http://www.w3.org/1999/xlink" xml:space="preserve" xmlns:serif="http://www.serif.com/" style="fill-rule:evenodd;clip-rule:evenodd;stroke-linecap:round;stroke-linejoin:round;stroke-miterlimit:1.5;"><path d="M800.998,431.866l0,-391.505c0,-21.701 -17.618,-39.319 -39.318,-39.319l-721.319,-0c-21.701,-0 -39.319,17.618 -39.319,39.319l-0,391.505" style="fill:#fff;stroke:#000;stroke-width:2.08px;"/><rect x="2.754" y="108.576" width="796.609" height="325.703" style="fill:#f5f5f5;"/><path d="M50.026,156.252c5.982,-1.797 9.307,6.061 13.445,4.371c2.292,-0.936 3.04,-11.56 7.466,-8.658c2.217,1.454 11.343,10.012 15.715,10.855c7.1,1.371 9.353,-11.808 17.24,-10.939c7.22,0.794 9.378,11.953 18.78,10.939c7.916,-0.854 13.531,-10.472 20.996,-12.028c2.216,-0.462 4.211,11.416 7.989,11.779c8.78,0.846 7.797,-5.661 16.009,-6.373c7.836,-0.68 15.335,3.607 23.249,3.791" style="fill:none;stroke:#000;stroke-width:4.17px;"/><path d="M58.84,40.537c-2.589,0 -4.687,2.099 -4.687,4.688l-0,5.208c-0,2.589 2.098,4.688 4.687,4.688l5.209,-0c2.588,-0 4.687,-2.099 4.687,-4.688l0,-5.208c0,-2.589 -2.099,-4.688 -4.687,-4.688l-5.209,0Zm0,18.75c-2.589,0 -4.687,2.099 -4.687,4.688l-0,5.208c-0,2.589 2.098,4.688 4.687,4.688l5.209,-0c2.588,-0 4.687,-2.099 4.687,-4.688l0,-5.208c0,-2.589 -2.099,-4.688 -4.687,-4.688l-5.209,0Zm18.75,-18.75c-2.589,0 -4.687,2.099 -4.687,4.688l-0,5.208c-0,2.589 2.098,4.688 4.687,4.688l5.209,-0c2.588,-0 4.687,-2.099 4.687,-4.688l0,-5.208c0,-2.589 -2.099,-4.688 -4.687,-4.688l-5.209,0Zm0,18.75c-2.589,0 -4.687,2.099 -4.687,4.688l-0,5.208c-0,2.589 2.098,4.688 4.687,4.688l5.209,-0c2.588,-0 4.687,-2.099 4.687,-4.688l0,-5.208c0,-2.589 -2.099,-4.688 -4.687,-4.688l-5.209,0Z" style="fill:#0f172a;"/><path d="M202.443,431.866c0.325,-1.726 0.665,-3.451 1.018,-5.165c10.918,-53.071 58.268,-85.748 100.273,-119.963c36.863,-30.024 75.119,-63.987 122.604,-61.579c46.452,2.357 81.222,38.902 112.308,73.494c29.305,32.594 50.33,69.89 56.438,113.213l-392.641,-0Z" style="fill:#faaa75;"/><path d="M169.994,433.121c2.323,-23.293 11.281,-46.21 26.699,-68.245c15.558,-22.247 37.281,-42.664 62.83,-59.047c32.981,-21.147 73.515,-18.992 112.712,-16.909c10.981,0.584 22.331,1.188 33.398,1.279c12.396,0.107 25.563,-0.837 38.299,-1.744c38.857,-2.769 79.03,-5.632 105.435,19.933c25.923,25.098 21.221,61.537 16.674,96.781c-1.19,9.242 -2.411,18.723 -3.069,27.952l-2.837,0c0.658,-9.37 1.898,-18.962 3.106,-28.313c4.455,-34.551 9.058,-70.276 -15.84,-94.389c-25.493,-24.686 -65.036,-21.866 -103.271,-19.143c-12.786,0.911 -26.002,1.862 -38.525,1.751c-11.124,-0.092 -22.509,-0.698 -33.526,-1.282c-12.304,-0.654 -24.411,-1.298 -36.199,-1.298c-27.027,-0 -52.399,3.381 -74.83,17.764c-50.969,32.683 -83.339,78.809 -88.196,124.91l-2.86,0Z" style="fill-rule:nonzero;stroke:#000;stroke-width:2.08px;stroke-linecap:butt;stroke-miterlimit:2;"/><path d="M428.04,432.144c-1.179,-1.546 -3.065,-2.895 -5.658,-4.047c-4.755,-2.246 -10.039,-3.831 -15.851,-4.756c-15.323,-2.245 -22.984,-4.887 -22.984,-7.925c0,-1.057 0.198,-1.849 0.595,-2.378c1.056,-1.849 4.425,-4.425 10.105,-7.727c5.679,-3.302 11.425,-6.539 17.238,-9.709c5.944,-3.17 11.36,-7.331 16.247,-12.482c4.887,-5.152 7.331,-10.37 7.331,-15.653c-0,-6.209 -3.368,-9.313 -10.105,-9.313c-5.416,0 -12.285,2.18 -20.606,6.539c-8.322,4.227 -13.077,6.34 -14.266,6.34c-1.057,0 -3.104,-1.387 -6.143,-4.161c-3.038,-2.906 -4.557,-5.085 -4.557,-6.538c0,-3.963 5.35,-8.058 16.049,-12.285c10.832,-4.227 20.409,-6.34 28.73,-6.34c8.322,-0 15.323,2.84 21.003,8.52c5.812,5.68 8.718,12.218 8.718,19.615c-0,7.265 -4.161,14.729 -12.483,22.39c-8.321,7.529 -17.964,13.87 -28.928,19.021c12.02,1.585 21.597,4.557 28.73,8.916c5.245,3.205 8.562,7.196 9.95,11.973l-23.115,-0Z" style="fill-rule:nonzero;"/><g><g><path d="M364.242,59.193c-0.229,-0.033 -0.478,-0.063 -1.317,-0.031c-0.487,0.018 -0.867,0.429 -0.849,0.916c0.018,0.487 0.429,0.867 0.916,0.849c0.149,-0.006 0.279,-0.01 0.394,-0.012c-1.227,2.416 -2.919,5.507 -4.277,7.106c-0.69,0.813 -2.065,2.22 -3.416,3.185c-0.583,0.417 -1.153,0.755 -1.652,0.88l0.045,-0.067c0.668,-1.02 1.568,-2.787 1.121,-5.548c-0.197,-1.216 -1.088,-2.272 -2.139,-3.064c-1.406,-1.06 -3.045,-1.653 -3.045,-1.653c-0.389,-0.141 -0.825,0.008 -1.046,0.359c-0,-0 -1.645,2.602 -3.26,5.097c-2.276,3.515 -3.677,4.032 -5.411,4.735c-0.451,0.183 -0.669,0.699 -0.486,1.15c0.183,0.452 0.698,0.67 1.15,0.487c1.989,-0.807 3.617,-1.378 6.229,-5.413c1.135,-1.752 2.284,-3.558 2.871,-4.482c0.514,0.235 1.256,0.618 1.935,1.13c0.682,0.514 1.331,1.147 1.459,1.936c0.445,2.752 -0.824,4.244 -1.254,4.875c-0.178,0.26 -0.265,0.474 -0.293,0.614c-0.056,0.287 0.008,0.517 0.123,0.704c0.595,0.966 1.604,1.179 2.835,0.728c1.901,-0.697 4.502,-3.24 5.58,-4.51c0.855,-1.006 1.84,-2.579 2.768,-4.22c0.006,1.001 0.134,2.471 0.17,3.325c0.107,2.596 1.997,4.512 3.283,4.986c1.54,0.567 2.821,0.124 4.049,-0.871c0.919,-0.745 1.812,-1.832 2.82,-2.908c0.079,0.673 0.241,1.318 0.478,1.879c0.723,1.708 2.086,2.657 3.816,2.009c1.547,-0.579 2.805,-1.653 3.848,-2.939c1.452,-1.79 2.48,-3.993 3.355,-5.65c0.145,-0.275 0.298,-0.605 0.455,-0.976c-0.373,2.615 -0.981,5.378 -1.077,7.217c-0.04,0.774 0.013,1.411 0.16,1.859c0.164,0.498 0.446,0.829 0.795,1.019c0.822,0.446 1.86,0.386 2.995,-0.14c1.727,-0.8 3.774,-2.735 5.465,-4.59c0.106,1.474 0.581,2.796 1.946,3.748c1.172,0.816 2.914,0.802 4.805,0.167c2.212,-0.743 4.658,-2.292 6.439,-3.784c0.111,0.508 0.292,0.986 0.557,1.414c0.742,1.2 1.605,1.807 2.49,2.038c1.284,0.335 2.696,-0.144 4.05,-1.089c1.242,-0.867 2.041,-2.149 2.618,-3.387c0.027,0.356 0.069,0.704 0.129,1.025c0.29,1.549 1.048,2.84 2.527,3.246c0.913,0.251 2.094,-0.16 3.367,-1.114c1.909,-1.429 4.206,-4.071 6.408,-5.892c-0.117,0.976 -0.247,2.208 -0.27,2.99c-0.021,0.737 -0.372,1.626 -0.438,2.333c-0.058,0.626 0.067,1.156 0.387,1.545c0.307,0.372 0.83,0.679 1.756,0.68c0.306,0.001 0.645,-0.109 0.983,-0.382c0.28,-0.227 0.589,-0.599 0.9,-1.089c0.976,-1.534 2.117,-4.386 3.183,-6.363c0.262,-0.486 0.517,-0.914 0.766,-1.243c-0.243,0.768 -0.628,2.087 -0.865,3.378c-0.299,1.635 -0.167,3.77 0.353,4.84c0.404,0.831 1.036,1.179 1.73,1.074c1.179,-0.178 1.984,-0.921 2.635,-2.027c0.745,-1.262 1.284,-3.066 2.389,-4.63c0.196,-0.276 0.429,-0.583 0.68,-0.89c-0.169,0.525 -0.309,1.009 -0.364,1.316c-0.082,0.461 -0.383,1.716 -0.294,2.937c0.071,0.984 0.394,1.934 1.122,2.586c0.545,0.488 1.364,0.64 2.268,0.503c1.571,-0.237 3.42,-1.316 3.42,-1.316c0.123,-0.073 0.225,-0.173 0.298,-0.291c0.043,0.056 0.088,0.111 0.134,0.164c1.351,1.559 3.913,1.829 5.846,1.031c0.951,-0.392 1.735,-1.029 2.186,-1.848c1.101,0.946 2.534,1.501 3.83,1.561c1.361,0.062 2.561,-0.413 3.226,-1.398c0.487,-0.723 0.979,-1.682 1.458,-2.779c0.057,0.646 0.208,1.512 0.462,2.281c0.252,0.766 0.621,1.431 1.046,1.8c1.189,1.033 2.815,1.339 4.455,1.17c1.918,-0.196 3.832,-1.042 4.967,-1.904c0.99,1.05 2.41,1.692 3.743,2.083c2.803,0.823 7.5,-0.429 9.772,-4.782c0.226,-0.432 0.058,-0.966 -0.374,-1.191c-0.432,-0.226 -0.966,-0.058 -1.192,0.374c-1.804,3.458 -5.482,4.558 -7.709,3.904c-1.062,-0.311 -2.238,-0.777 -2.997,-1.634c1.142,-1.286 2.9,-3.391 3.577,-4.968c0.544,-1.266 0.383,-2.294 -0.358,-2.835c-0.667,-0.489 -1.469,-0.495 -2.284,-0.115c-1.363,0.634 -2.768,2.504 -3.079,3.457c-0.575,1.759 -0.495,3.136 -0.057,4.223c-0.862,0.731 -2.534,1.462 -4.189,1.632c-1.141,0.117 -2.289,-0.028 -3.116,-0.747c-0.235,-0.204 -0.389,-0.597 -0.528,-1.019c-0.262,-0.795 -0.395,-1.718 -0.399,-2.232c-0.011,-1.316 0.288,-3.816 0.703,-6.359c0.017,-0.055 0.034,-0.11 0.05,-0.165l1.225,-0.046c0.545,-0.021 1.222,0.047 1.866,-0.017c0.561,-0.056 1.099,-0.204 1.559,-0.505c0.408,-0.266 0.523,-0.814 0.256,-1.222c-0.266,-0.408 -0.814,-0.523 -1.222,-0.256c-0.296,0.194 -0.665,0.229 -1.029,0.243c-0.527,0.021 -1.056,-0.024 -1.497,-0.008l-0.624,0.024c0.491,-1.534 1.358,-3.757 1.649,-5.074c0.148,-0.669 0.126,-1.187 0.022,-1.457c-0.156,-0.407 -0.444,-0.62 -0.814,-0.686c-0.251,-0.045 -0.534,-0.007 -0.813,0.218c-0.209,0.167 -0.532,0.685 -0.801,1.516c-0.403,1.241 -0.868,3.333 -1.275,5.56l-1.831,0.069c-0.487,0.019 -0.868,0.429 -0.849,0.916c0.018,0.487 0.429,0.867 0.916,0.849l1.396,-0.053c-1.018,3.322 -2.284,6.873 -3.549,8.747c-0.339,0.502 -0.987,0.653 -1.68,0.622c-1.282,-0.059 -2.758,-0.788 -3.521,-2.006c-0.259,-0.413 -0.804,-0.538 -1.217,-0.28c-0.261,0.164 -0.407,0.442 -0.414,0.729c-0.064,0.104 -0.107,0.222 -0.124,0.35c-0.128,1 -1.117,1.607 -2.182,1.839c-1.13,0.246 -2.423,0.072 -3.152,-0.769c-0.643,-0.742 -0.763,-1.953 -0.122,-3.71c0.592,-1.619 1.208,-2.365 1.943,-2.482c0.643,-0.103 1.266,0.289 1.809,0.724c1.005,0.806 1.726,1.898 1.726,1.898c0.213,0.323 0.612,0.47 0.983,0.362c0.372,-0.108 0.63,-0.445 0.637,-0.832c0.014,-0.766 -0.43,-1.746 -1.235,-2.558c-1.043,-1.052 -2.653,-1.814 -4.282,-1.521c-1.081,0.195 -2.196,0.842 -3.148,2.247c-0.348,0.513 -0.635,1.326 -0.843,2.222c-0.31,1.337 -0.465,2.864 -0.528,3.63c-0.428,0.222 -1.146,0.562 -1.871,0.761c-0.327,0.09 -0.655,0.153 -0.95,0.144c-0.152,-0.005 -0.295,-0.014 -0.394,-0.103c-0.387,-0.347 -0.502,-0.875 -0.54,-1.399c-0.075,-1.04 0.202,-2.107 0.272,-2.5c0.173,-0.968 1.098,-3.273 1.251,-3.775c0.137,-0.45 -0.024,-0.735 -0.055,-0.791c-0.147,-0.26 -0.356,-0.416 -0.604,-0.497c-0.226,-0.075 -0.522,-0.086 -0.864,0.051c-0.274,0.111 -0.641,0.36 -1.033,0.717c-0.728,0.663 -1.613,1.721 -2.192,2.541c-0.963,1.362 -1.527,2.892 -2.136,4.129c-0.415,0.844 -0.796,1.567 -1.541,1.766c-0.051,-0.097 -0.129,-0.257 -0.169,-0.391c-0.271,-0.912 -0.285,-2.314 -0.081,-3.424c0.354,-1.935 0.965,-3.567 1.058,-3.933c0.089,-0.349 -0.003,-0.57 -0.032,-0.639c-0.369,-0.862 -0.878,-1.196 -1.322,-1.282c-0.345,-0.067 -0.713,-0.007 -1.087,0.219c-0.318,0.193 -0.667,0.543 -1.013,1.029c-1.19,1.675 -2.559,5.254 -3.724,7.252c-0.173,0.297 -0.339,0.554 -0.5,0.754c-0.06,0.075 -0.148,0.161 -0.199,0.209c-0.109,-0.011 -0.215,-0.033 -0.267,-0.045c-0.005,-0.045 -0.011,-0.119 -0.009,-0.169c0.007,-0.137 0.032,-0.284 0.062,-0.438c0.135,-0.675 0.37,-1.434 0.389,-2.083c0.044,-1.525 0.518,-3.949 0.456,-4.692c-0.041,-0.475 -0.27,-0.733 -0.43,-0.849c-0.28,-0.202 -0.644,-0.305 -1.091,-0.016c-2.269,1.463 -4.768,4.297 -6.921,6.193c-0.65,0.572 -1.263,1.054 -1.826,1.359c-0.374,0.202 -0.699,0.347 -0.991,0.267c-0.81,-0.222 -1.1,-1.02 -1.259,-1.868c-0.334,-1.778 0.007,-3.895 -0.062,-4.425c-0.068,-0.518 -0.378,-0.731 -0.565,-0.815c-0.224,-0.1 -0.487,-0.13 -0.785,0.016c-0.231,0.112 -0.461,0.309 -0.666,0.609c-0.181,0.266 -0.357,0.639 -0.538,1.088c-0.544,1.349 -1.156,3.565 -2.877,4.765c-0.88,0.614 -1.761,1.047 -2.594,0.829c-0.525,-0.136 -0.994,-0.547 -1.435,-1.259c-0.347,-0.561 -0.458,-1.246 -0.445,-1.961c0.666,-0.668 1.004,-1.151 2.278,-2.768c0.805,-1.022 3.991,-5.367 5.48,-8.436c0.502,-1.036 0.809,-1.951 0.842,-2.59c0.024,-0.456 -0.075,-0.823 -0.249,-1.097c-0.305,-0.48 -0.815,-0.705 -1.537,-0.411c-0.321,0.13 -0.746,0.424 -1.209,0.848c-0.887,0.811 -1.998,2.132 -2.878,3.298c-1.543,2.044 -2.103,3.105 -3.001,5.346c-0.166,0.416 -1.042,2.348 -1.364,4.402c-0.032,0.202 -0.058,0.405 -0.077,0.608c-0.139,0.13 -0.295,0.273 -0.472,0.435c-1.644,1.498 -4.165,3.192 -6.427,3.952c-1.272,0.427 -2.445,0.607 -3.233,0.058c-0.979,-0.683 -1.182,-1.691 -1.212,-2.768c-0.01,-0.361 0.199,-0.961 0.563,-1.575c0.19,-0.319 0.427,-0.642 0.712,-0.935c0.988,-0.707 1.802,-1.015 2.272,-1.133c0.032,-0.003 0.063,-0.005 0.095,-0.007c0.497,-0.032 0.726,-0.193 0.767,-0.225c0.383,-0.297 0.379,-0.65 0.32,-0.901c-0.033,-0.142 -0.167,-0.631 -0.804,-0.685c-0.057,-0.005 -0.231,0.004 -0.499,0.056c-1.378,0.116 -2.485,0.749 -3.315,1.564c-0.728,0.533 -1.514,1.237 -2.315,2.167c-1.437,1.666 -3.304,3.637 -4.993,4.712c-0.49,0.312 -0.959,0.546 -1.393,0.649c-0.26,0.061 -0.5,0.078 -0.708,-0.01c-0.02,-0.061 -0.064,-0.205 -0.079,-0.312c-0.036,-0.267 -0.037,-0.589 -0.018,-0.953c0.122,-2.343 1.075,-6.188 1.316,-9.315c0.554,0.003 1.111,0.008 1.645,-0.003c1.242,-0.023 2.373,-0.133 3.157,-0.45c0.452,-0.182 0.671,-0.697 0.489,-1.149c-0.183,-0.452 -0.698,-0.671 -1.15,-0.488c-0.627,0.252 -1.536,0.303 -2.529,0.322c-0.473,0.009 -0.963,0.008 -1.455,0.007c0.341,-2.364 1.234,-5.152 1.268,-5.833c0.043,-0.867 -0.582,-1.072 -0.899,-1.082c-0.155,-0.005 -0.543,0.028 -0.913,0.511c-0.054,0.07 -0.244,0.5 -0.461,1.192c-0.367,1.172 -0.994,3.293 -1.66,5.278c-0.344,0.027 -0.671,0.066 -0.975,0.121c-0.479,0.088 -0.798,0.548 -0.71,1.027c0.087,0.48 0.547,0.798 1.026,0.711l0.003,-0.001c-0.298,0.795 -0.59,1.492 -0.856,1.995c-0.696,1.318 -1.485,3.002 -2.532,4.515c-0.965,1.395 -2.148,2.654 -3.728,3.245c-0.756,0.284 -1.254,-0.297 -1.57,-1.044c-0.403,-0.951 -0.511,-2.225 -0.271,-3.335c0.052,-0.239 0.119,-0.471 0.205,-0.689c0.332,-0.481 0.611,-0.89 0.731,-1.069c0.081,-0.121 0.12,-0.196 0.125,-0.205c0.322,-0.676 -0.216,-1.055 -0.315,-1.119c-0.127,-0.083 -0.584,-0.364 -1.078,0.087c-0.43,0.394 -0.773,0.899 -1.026,1.473c-0.658,0.968 -1.451,2.128 -1.501,2.18c-1.056,1.103 -1.963,2.257 -2.907,3.023c-0.711,0.576 -1.434,0.914 -2.327,0.586c-0.865,-0.319 -2.057,-1.657 -2.129,-3.402c-0.042,-1.014 -0.247,-2.966 -0.153,-3.744c0.152,-1.248 0.418,-2.372 0.756,-3.446c0.463,0.029 1.744,0.098 2.751,0.045c0.695,-0.037 1.28,-0.163 1.56,-0.322c0.423,-0.241 0.571,-0.781 0.329,-1.204c-0.237,-0.416 -0.762,-0.566 -1.182,-0.342c-0.03,0.006 -0.473,0.087 -0.8,0.104c-0.678,0.036 -1.489,0.011 -2.047,-0.015c0.772,-2.005 1.717,-3.978 2.518,-6.45c0.191,-0.59 0.269,-0.877 0.276,-0.924c0.08,-0.544 -0.259,-0.778 -0.345,-0.842c-0.237,-0.177 -0.526,-0.254 -0.876,-0.105c-0.027,0.012 -0.34,0.137 -0.524,0.601c-0.26,0.653 -1.459,3.964 -2.467,6.144c-0.119,0.257 -0.369,0.793 -0.711,1.497Zm116.566,4.729c-0.086,-0.043 -0.185,-0.02 -0.286,0.01c-0.179,0.054 -0.36,0.157 -0.541,0.283c-0.82,0.572 -1.595,1.613 -1.784,2.191c-0.266,0.816 -0.357,1.516 -0.304,2.118c0.8,-0.928 1.736,-2.093 2.35,-3.143c0.227,-0.388 0.409,-0.755 0.506,-1.084c0.032,-0.106 0.054,-0.206 0.06,-0.299c0.002,-0.022 0,-0.054 -0.001,-0.076Zm-65.572,-9.063c-0.052,0.047 -0.102,0.095 -0.15,0.143c-0.75,0.753 -1.609,1.793 -2.312,2.724c-1.424,1.888 -1.941,2.868 -2.77,4.939c-0.074,0.185 -0.306,0.7 -0.558,1.397l0.082,-0.105c0.775,-0.983 3.847,-5.16 5.279,-8.114c0.17,-0.35 0.316,-0.68 0.429,-0.984Zm-38.037,3.604c-0.408,-0.058 -0.814,0.177 -0.956,0.58c-0.212,0.6 -0.002,0.954 0.166,1.143c0.184,0.207 0.456,0.352 0.828,0.331c0.316,-0.018 0.903,-0.298 1.282,-0.614c0.289,-0.242 0.458,-0.514 0.509,-0.667c0.079,-0.238 0.056,-0.445 -0.002,-0.612c-0.082,-0.234 -0.386,-0.809 -1.289,-0.57c-0.236,0.062 -0.424,0.214 -0.538,0.409Z"/></g></g><circle cx="746.454" cy="56.001" r="20.833" style="fill:#f5f5f5;"/><circle cx="746.454" cy="154.742" r="12.5"/></svg>