<svg width="67" height="65" viewBox="0 0 67 65" fill="none" xmlns="http://www.w3.org/2000/svg">
<path fill-rule="evenodd" clip-rule="evenodd" d="M60.4468 30.8146C58.3858 39.1946 58.5207 47.2646 58.2737 55.7646C58.2257 57.4246 59.5298 58.8046 61.1848 58.8546C62.8408 58.9046 64.2228 57.5946 64.2718 55.9346C64.5058 47.8746 64.3168 40.2047 66.2728 32.2447C66.6688 30.6347 65.6837 29.0047 64.0757 28.6147C62.4687 28.2147 60.8418 29.2046 60.4468 30.8146Z" fill="black"/>
<path fill-rule="evenodd" clip-rule="evenodd" d="M42.937 14.5746C28.955 27.3546 15.781 43.7946 6.57297 60.3946C5.76997 61.8446 6.293 63.6746 7.741 64.4746C9.189 65.2746 11.017 64.7546 11.82 63.3046C20.724 47.2546 33.465 31.3545 46.985 19.0045C48.207 17.8845 48.292 15.9845 47.175 14.7645C46.058 13.5445 44.159 13.4546 42.937 14.5746Z" fill="black"/>
<path fill-rule="evenodd" clip-rule="evenodd" d="M39.3947 0.614569C26.6067 -1.49543 13.4257 2.10452 1.7977 7.19452C0.280699 7.86452 -0.411322 9.63448 0.251678 11.1445C0.915678 12.6645 2.6867 13.3545 4.2037 12.6945C14.7937 8.05453 26.7707 4.61449 38.4177 6.53449C40.0517 6.80449 41.5967 5.69452 41.8657 4.06452C42.1357 2.43452 41.0277 0.884569 39.3947 0.614569Z" fill="black"/>
</svg>
