<?xml version="1.0" encoding="iso-8859-1"?>
<!-- Generator: Adobe Illustrator 27.2.0, SVG Export Plug-In . SVG Version: 6.00 Build 0)  -->
<svg version="1.1" id="A." xmlns="http://www.w3.org/2000/svg" xmlns:xlink="http://www.w3.org/1999/xlink" x="0px" y="0px"
	 viewBox="0 0 1000 750" style="enable-background:new 0 0 1000 750;" xml:space="preserve">
<g>
	<path d="M609.752,315.834c-0.858-2.611-4.384-5.074-8.619-6.117c4.036-2.306,6.741-5.491,6.85-8.132
		c0.062-1.484-0.677-2.749-2.134-3.645c-2.242-1.388-4.951-1.123-7.867,0.727c-1.256,0.799-2.39,1.787-3.417,2.861
		c-1.039,1.085-1.977,2.27-2.799,3.527c-0.718,1.099-1.362,2.263-1.824,3.494c-0.07,0.187-0.135,0.389-0.197,0.593
		c-3.845,0.033-11.451,0.147-23.21,0.349c-0.014-0.034-0.027-0.063-0.04-0.085l-0.163-0.412c-0.1-0.242-0.196-0.47-0.29-0.654
		c-0.068-0.178-0.15-0.343-0.23-0.479c-0.143-0.286-0.264-0.526-0.393-0.758l-0.214-0.382c-0.055-0.109-0.109-0.191-0.167-0.279
		l-0.064-0.098c-0.031-0.061-0.107-0.171-0.145-0.223l-0.165-0.227c-0.033-0.044-0.066-0.088-0.136-0.189l-0.162-0.189
		c-0.059-0.071-0.11-0.132-0.171-0.193l-0.182-0.194c-0.143-0.144-0.287-0.274-0.466-0.412c-0.142-0.102-0.296-0.206-0.462-0.302
		c-0.15-0.081-0.298-0.137-0.473-0.199l-0.292-0.067c-0.215-0.043-0.414-0.059-0.665-0.042c-1.691,0.13-3.117,1.939-4.355,5.527
		l-3.258,0.063c-0.038-0.122-0.077-0.238-0.12-0.348l-0.034-0.106c-0.051-0.155-0.104-0.316-0.165-0.48l-0.256-0.659l-0.044-0.139
		c-0.043-0.092-0.081-0.185-0.12-0.281l-0.081-0.227c-0.063-0.154-0.127-0.294-0.192-0.423c-0.034-0.068-0.072-0.158-0.11-0.246
		l-0.163-0.34c-0.022-0.04-0.042-0.074-0.066-0.128l-0.167-0.318c-0.025-0.036-0.054-0.07-0.092-0.111
		c-0.033-0.112-0.106-0.206-0.178-0.3l-0.193-0.289c-0.034-0.068-0.07-0.124-0.115-0.174c-0.027-0.044-0.059-0.083-0.097-0.13
		l-0.118-0.16c-0.102-0.115-0.203-0.229-0.301-0.325l-0.244-0.233c-0.044-0.046-0.113-0.115-0.189-0.155
		c-0.038-0.031-0.089-0.073-0.141-0.097l-0.49-0.24c-0.086-0.029-0.172-0.055-0.248-0.067l-0.202-0.038
		c-0.181-0.029-0.366-0.03-0.54-0.001c-1.562,0.214-2.819,2.119-4.065,6.167l-3.246,0.063c-0.06-0.169-0.122-0.33-0.187-0.493
		l-0.242-0.634c-0.019-0.034-0.032-0.068-0.046-0.103c-0.019-0.046-0.04-0.095-0.053-0.12c-0.076-0.19-0.153-0.368-0.231-0.523
		c-0.114-0.277-0.24-0.53-0.358-0.752c-0.076-0.165-0.165-0.343-0.24-0.48c-0.176-0.327-0.352-0.616-0.499-0.828
		c-0.06-0.109-0.13-0.208-0.23-0.344c-0.05-0.059-0.108-0.148-0.18-0.265c-0.174-0.212-0.35-0.423-0.544-0.631l-0.363-0.326
		c-0.092-0.093-0.199-0.178-0.344-0.275l-0.188-0.125c-0.191-0.122-0.397-0.221-0.61-0.292l-0.125-0.042
		c-0.094-0.027-0.201-0.042-0.292-0.054c-0.078-0.016-0.152-0.02-0.226-0.012c-0.143-0.023-0.285-0.018-0.4,0.005
		c-0.089,0-0.158,0.014-0.238,0.031c-1.697,0.339-3.051,2.447-4.138,6.442l-2.753,0.051l-0.025-0.071
		c-0.059-0.174-0.117-0.327-0.201-0.543c-0.029-0.057-0.059-0.125-0.086-0.206l-0.088-0.219c-0.052-0.13-0.102-0.256-0.165-0.399
		l-0.16-0.327c-0.02-0.049-0.042-0.099-0.068-0.146l-0.305-0.597c-0.083-0.142-0.166-0.284-0.244-0.405
		c-0.039-0.066-0.079-0.131-0.127-0.204l-0.118-0.183c-0.152-0.215-0.329-0.431-0.535-0.662l-0.121-0.109
		c-0.067-0.067-0.147-0.134-0.255-0.23l-0.089-0.071c-0.206-0.151-0.432-0.266-0.673-0.346c-0.071-0.028-0.153-0.046-0.294-0.072
		l-0.154-0.012c-1.541-0.154-2.728,1.476-3.656,4.922l-2.924,0.051c-0.02-0.047-0.039-0.094-0.059-0.137l-0.032-0.075
		c-0.075-0.187-0.15-0.363-0.221-0.516l-0.307-0.701c-0.089-0.18-0.174-0.353-0.264-0.516l-0.165-0.329
		c-0.038-0.076-0.083-0.152-0.124-0.223l-0.048-0.082c-0.246-0.401-0.5-0.765-0.78-1.117l-0.764-0.826
		c-0.268-0.24-0.52-0.414-0.767-0.536c-0.074-0.044-0.148-0.075-0.188-0.088c-0.115-0.066-0.246-0.115-0.39-0.147l-0.102-0.019
		c-0.044-0.014-0.09-0.026-0.19-0.038l-0.098,0.002c-0.144-0.015-0.302-0.014-0.442-0.001c-1.635,0.144-2.985,2.007-4.013,5.539
		l-2.631,0.05l-0.054-0.15c-0.064-0.203-0.137-0.389-0.212-0.578l-0.093-0.24c-0.067-0.176-0.13-0.34-0.184-0.442
		c-0.1-0.278-0.214-0.53-0.326-0.766c-0.078-0.17-0.157-0.327-0.219-0.427c-0.085-0.182-0.171-0.347-0.257-0.494l-0.16-0.34
		c-0.104-0.169-0.209-0.338-0.317-0.484c-0.038-0.061-0.085-0.137-0.114-0.158c-0.129-0.192-0.257-0.358-0.383-0.511l-0.226-0.241
		c-0.099-0.101-0.2-0.203-0.283-0.269c-0.06-0.06-0.135-0.121-0.186-0.158l-0.34-0.237c-0.247-0.165-0.514-0.281-0.815-0.352
		l-0.141-0.01c-0.078-0.013-0.137-0.012-0.206-0.023c-0.183-0.013-0.385-0.003-0.64,0.031c-1.638,0.341-2.921,2.311-3.918,6.018
		l-2.401,0.05c-0.011-0.033-0.022-0.066-0.033-0.096l-0.15-0.378c-0.231-0.666-0.518-1.288-0.747-1.766l-0.228-0.419
		c-0.066-0.132-0.132-0.251-0.197-0.356c-0.126-0.201-0.252-0.403-0.418-0.623l-0.272,0.214c0,0,0-0.001-0.001-0.001l0.213-0.304
		c-0.038-0.051-0.196-0.255-0.329-0.384c-0.058-0.08-0.127-0.152-0.188-0.199l-0.254-0.24c-0.178-0.147-0.359-0.268-0.539-0.358
		l-0.122-0.048c-0.058-0.029-0.138-0.069-0.186-0.073c-0.097-0.039-0.19-0.066-0.264-0.078l-0.252-0.044h-0.206
		c-1.603,0-2.799,1.79-3.556,5.323l-1.409,0.026c-0.106-0.34-0.214-0.671-0.348-1.003c-0.02-0.06-0.043-0.12-0.066-0.18
		l-0.106-0.311c-0.048-0.119-0.094-0.227-0.123-0.272c-0.087-0.234-0.182-0.43-0.268-0.606l-0.074-0.154
		c-0.066-0.132-0.132-0.251-0.188-0.34l-0.047-0.087c-0.044-0.082-0.085-0.158-0.171-0.296c-0.05-0.081-0.097-0.156-0.203-0.301
		c-0.084-0.117-0.159-0.22-0.268-0.345c-0.078-0.091-0.134-0.152-0.147-0.153c-0.074-0.089-0.163-0.178-0.257-0.255
		c-0.074-0.059-0.132-0.102-0.165-0.117c-0.093-0.077-0.188-0.14-0.285-0.189c-0.088-0.044-0.177-0.087-0.262-0.115
		c-0.09-0.03-0.18-0.047-0.263-0.061c-0.165-0.033-0.343-0.033-0.492-0.005c-1.314,0.137-2.28,1.752-2.951,4.934l-1.773,0.037
		l-0.095-0.292c-0.024-0.073-0.048-0.141-0.085-0.235c-0.012-0.04-0.025-0.081-0.031-0.091l-0.386-1.073
		c-0.135-0.332-0.257-0.627-0.362-0.856c-0.03-0.077-0.076-0.169-0.09-0.176c-0.04-0.12-0.122-0.272-0.161-0.329l-0.428-0.758
		c-0.115-0.193-0.244-0.374-0.365-0.531c-0.097-0.138-0.206-0.262-0.341-0.398c-0.033-0.038-0.075-0.083-0.085-0.083h-0.001
		c-0.231-0.231-0.485-0.41-0.745-0.526c-0.082-0.041-0.165-0.07-0.279-0.108c-0.513-0.147-1.021-0.073-1.463,0.206
		c-1.066,0.638-1.886,2.339-2.573,5.346l-2.654,0.05l-0.09-0.248c-0.107-0.3-0.224-0.59-0.333-0.862l-0.048-0.118
		c-0.048-0.122-0.097-0.231-0.144-0.338c-0.046-0.104-0.091-0.206-0.14-0.33c-0.216-0.481-0.465-0.946-0.734-1.37
		c-0.043-0.104-0.1-0.18-0.114-0.186l-0.043-0.085c-0.118-0.171-0.238-0.342-0.37-0.485l-0.134-0.162
		c-0.046-0.058-0.1-0.124-0.169-0.18l-0.07-0.055c-0.069-0.085-0.156-0.16-0.224-0.199l-0.434-0.28
		c-0.066-0.033-0.136-0.067-0.182-0.076l-0.133-0.047l-0.029,0.001c-0.096-0.047-0.208-0.072-0.324-0.072h-0.17
		c-1.461,0-2.516,1.674-3.312,5.264l-3.137,0.072l-0.087-0.165c-0.066-0.125-0.127-0.242-0.177-0.325l-0.255-0.489
		c-0.017-0.033-0.037-0.066-0.058-0.099l-0.319-0.476c-0.094-0.133-0.198-0.253-0.342-0.41l-0.076-0.071
		c-0.046-0.062-0.107-0.125-0.207-0.215l-0.126-0.075c-0.046-0.046-0.1-0.1-0.153-0.134c-0.139-0.101-0.3-0.189-0.511-0.277
		c-0.153-0.055-0.306-0.097-0.53-0.129h-0.195c-1.069,0.041-1.902,0.992-2.612,2.987l-2.672,0.071
		c-0.015-0.038-0.031-0.075-0.047-0.113l-0.033-0.079c-0.027-0.081-0.058-0.172-0.091-0.223l-0.092-0.21
		c-0.098-0.197-0.197-0.393-0.299-0.584l-0.107-0.226c-0.145-0.266-0.316-0.529-0.534-0.819l-0.122-0.147
		c-0.069-0.082-0.137-0.151-0.145-0.154c-0.058-0.079-0.124-0.142-0.142-0.147l-0.109-0.109c-0.063-0.063-0.122-0.105-0.109-0.085
		c-0.07-0.07-0.156-0.136-0.262-0.198l-0.484-0.255c-0.08-0.032-0.143-0.049-0.197-0.061l-0.346-0.073l-0.085,0.001
		c-1.385-0.091-2.617,1.139-3.688,3.664l-3.816,0.119l-0.035-0.094c-0.171-0.405-0.343-0.786-0.535-1.18
		c-0.175-0.324-0.35-0.649-0.558-0.96l-0.094-0.129c-0.154-0.22-0.322-0.426-0.485-0.598c-0.043-0.055-0.092-0.102-0.14-0.146
		l-0.109-0.094c-0.132-0.115-0.258-0.207-0.408-0.293c-0.058-0.037-0.113-0.069-0.163-0.089l-0.191-0.08l-0.241-0.046
		c-0.084-0.025-0.176-0.038-0.269-0.038h-0.121c-1.29,0-2.324,1.275-3.247,4.007l-4.179,0.165c-0.457-0.733-1.034-1.413-1.721-2.028
		l-0.364-0.277c-0.054-0.036-0.085-0.055-0.082-0.051c-0.154-0.102-0.296-0.193-0.444-0.272l-0.991-0.356l-0.107-0.012
		c-0.082-0.014-0.152-0.029-0.259-0.021c-0.191-0.029-0.371-0.029-0.513-0.004l-0.19,0.003c-1.409,0.18-2.606,1.381-3.387,3.389
		c-27.78,1.361-30.185,3.167-30.263,4.916c0,0.987,0.383,1.788,1.124,2.37c1.359,1.197,3.777,1.856,6.808,1.856
		c1.439,0,2.866-0.128,4.237-0.38c2.167-0.365,3.214-0.696,3.305-1.593c0.093-0.909-0.999-1.315-2.062-1.711
		c-0.203-0.07-0.404-0.146-0.6-0.227c2.134-0.186,6.745-0.449,16.496-0.787c-0.075,0.779-0.118,1.546-0.128,2.289
		c-0.779,0.107-1.51,0.393-2.18,0.854c-0.751,0.531-1.308,1.198-1.704,2.042c-5.454,11.925-9.522,34.621-10.883,60.713
		c-1.273,24.283,0.132,45.05,3.577,52.908c3.809,8.668,46.088,16.864,86.997,16.864h3.019c42.269-0.438,84.132-9.769,87.485-16.817
		c3.319-6.932,2.023-34.983-0.586-58.112c-2.697-23.725-7.83-52.237-14.148-61.111c-0.63-0.897-1.473-1.523-2.506-1.864
		l-0.233-0.875c11.445-0.21,18.883-0.348,22.499-0.443c0.261,0.383,0.527,0.764,0.827,1.117c0.9,1.061,1.931,2.01,3.023,2.869
		c1.162,0.914,2.406,1.731,3.718,2.414c0.803,0.417,1.634,0.785,2.492,1.071c3.434,1.147,6.237,0.705,8.097-1.264
		C609.877,318.708,610.233,317.288,609.752,315.834z M566.348,314.173l0.158,0.587c-0.032,0.001-0.063,0.003-0.094,0.005
		l-8.924,0.484c0.065-0.309,0.132-0.612,0.2-0.917L566.348,314.173z M563.96,307.132C563.96,307.132,563.96,307.132,563.96,307.132
		L563.96,307.132L563.96,307.132z M561.766,305.735h0.003c0.084-0.01,0.165-0.01,0.177-0.016l0.17,0.055
		c0.059,0.015,0.108,0.036,0.198,0.09c0.07,0.031,0.153,0.083,0.242,0.15c0.098,0.076,0.197,0.165,0.307,0.274l0.663,0.824
		c0.026,0.043,0.053,0.085,0.087,0.128l0.273-0.218l-0.218,0.304l0.156,0.28c0.051,0.089,0.102,0.178,0.153,0.258
		c0.108,0.204,0.227,0.432,0.359,0.696c0.058,0.115,0.108,0.223,0.162,0.341l0.152,0.343c0.036,0.081,0.072,0.164,0.109,0.249
		l-5.737,0.113C559.91,307.258,560.922,305.822,561.766,305.735z M565.413,311.144c0.159,0.44,0.309,0.888,0.446,1.339
		c0.009,0.024,0.017,0.048,0.025,0.072l-10.947,0.182c-0.135-0.502-0.264-0.972-0.393-1.411L565.413,311.144z M556.015,314.356
		c-0.071,0.328-0.141,0.655-0.207,0.983l-0.227,0.014c-0.024-0.107-0.049-0.208-0.074-0.297c-0.036-0.176-0.077-0.343-0.117-0.507
		l-0.043-0.182L556.015,314.356z M553.676,314.378c0.016,0.068,0.031,0.136,0.046,0.208l0.087,0.361
		c0.036,0.147,0.073,0.295,0.109,0.457l0.006,0.025l-8.445,0.439c0.094-0.434,0.188-0.883,0.283-1.342L553.676,314.378z
		 M549.473,305.319l0.059,0.031l0.221-0.049l0.097,0.048c0.035,0.018,0.072,0.035,0.1,0.053l0.383,0.319
		c0.045,0.049,0.091,0.1,0.137,0.159l0.154,0.197l0.737,1.26c0.04,0.073,0.081,0.164,0.121,0.255l0.222,0.512
		c0.063,0.165,0.126,0.317,0.216,0.504l0.318,0.865c0.025,0.066,0.05,0.133,0.074,0.204l-5.291,0.143
		C548.21,306.083,549.154,305.431,549.473,305.319z M552.837,311.351c0.133,0.439,0.271,0.912,0.41,1.424l-10.23,0.192l-0.222-0.783
		c-0.061-0.214-0.123-0.43-0.186-0.639L552.837,311.351z M544.084,314.55c-0.102,0.475-0.199,0.94-0.284,1.398l-0.072,0.005
		l-0.311-1.385l-0.003-0.009L544.084,314.55z M541.743,314.608l0.085,0.343c0.085,0.361,0.163,0.711,0.239,1.053l0.01,0.042
		l-1.299,0.068c-2.617,0.136-5.331,0.277-8.099,0.411c0.088-0.602,0.184-1.19,0.286-1.756L541.743,314.608z M536.727,305.253
		l0.261,0.007l0.034-0.007l0.242,0.023c0.071,0.025,0.145,0.064,0.219,0.112l0.15,0.1c0.051,0.034,0.104,0.067,0.177,0.137
		c0.052,0.042,0.094,0.074,0.172,0.162l0.099,0.1c0.155,0.144,0.293,0.319,0.436,0.509c0.041,0.051,0.079,0.099,0.14,0.208
		l0.171,0.227c0.14,0.21,0.28,0.468,0.432,0.75c0.07,0.127,0.139,0.253,0.219,0.425c0.115,0.207,0.217,0.436,0.324,0.671
		l0.091,0.206c0.044,0.096,0.087,0.19,0.127,0.293l0.141,0.328c0.054,0.135,0.109,0.271,0.164,0.418l-6.304,0.101
		C535.118,306.202,536.224,305.408,536.727,305.253z M540.888,311.568c0.099,0.31,0.195,0.63,0.294,0.96l0.083,0.275
		c0.017,0.059,0.033,0.117,0.049,0.178l-10.821,0.193c-0.059-0.246-0.128-0.492-0.199-0.726c-0.011-0.111-0.049-0.203-0.067-0.239
		c-0.015-0.059-0.03-0.106-0.042-0.141l-0.094-0.307L540.888,311.568z M531.302,314.818c-0.056,0.338-0.111,0.685-0.165,1.039
		c-0.029-0.141-0.071-0.349-0.107-0.472c-0.036-0.179-0.072-0.346-0.117-0.513c-0.002-0.016-0.005-0.032-0.008-0.046
		L531.302,314.818z M529.1,314.834h0.132l0.044,0.167l-0.099,0.126l0.16,0.169c0.031,0.143,0.064,0.285,0.1,0.419l0.205,0.959
		l-7.001,0.348c0.085-0.701,0.181-1.382,0.28-2.072L529.1,314.834z M525.725,306.97c0.001,0,0.001,0,0.001,0l0.143,0.003
		c0.059,0.023,0.114,0.051,0.149,0.068l0.087,0.081c0.035,0.027,0.072,0.053,0.107,0.088l0.075,0.074
		c0.138,0.15,0.253,0.298,0.347,0.419l0.115,0.184c0.03,0.041,0.061,0.081,0.082,0.115c0.074,0.137,0.148,0.274,0.238,0.426
		l0.326,0.678c0.042,0.084,0.063,0.137,0.098,0.229c0.051,0.127,0.108,0.255,0.167,0.386l0.068,0.151
		c0.027,0.08,0.054,0.161,0.093,0.252l-3.921,0.068C524.856,307.026,525.684,306.97,525.725,306.97z M528.373,311.786l0.244,0.773
		c0,0.042,0,0.078,0.075,0.305c0.034,0.113,0.066,0.227,0.096,0.343l-8.417,0.148l-0.349-1.044c-0.04-0.129-0.079-0.25-0.122-0.369
		L528.373,311.786z M521.278,314.975c-0.049,0.323-0.097,0.66-0.144,1.015l-0.04-0.137c-0.049-0.196-0.098-0.379-0.147-0.563
		c-0.023-0.083-0.052-0.191-0.085-0.308L521.278,314.975z M519.175,315.045c0.043,0.148,0.085,0.298,0.128,0.451l0.073,0.259
		c0.047,0.166,0.095,0.343,0.141,0.529l0.228,0.886c-3.081,0.144-6.151,0.277-9.152,0.389c0.113-0.822,0.236-1.622,0.365-2.386
		L519.175,315.045z M514.492,306.571l0.146-0.008l0.144,0.035c0.031,0.008,0.068,0.024,0.113,0.042l0.08,0.033
		c0.178,0.1,0.322,0.205,0.474,0.347l0.225,0.225c0.04,0.04,0.092,0.09,0.136,0.146l0.196,0.242
		c0.217,0.285,0.432,0.605,0.619,0.924l0.156,0.31c0.045,0.08,0.091,0.171,0.139,0.268c0.095,0.18,0.191,0.371,0.287,0.561
		l0.231,0.534c0.012,0.025,0.024,0.049,0.036,0.073l-5.465,0.102C513.155,306.975,514.192,306.602,514.492,306.571z
		 M518.191,311.979c0.025,0.067,0.049,0.135,0.074,0.205l0.404,1.196l-10.058,0.191c-0.103-0.402-0.212-0.79-0.322-1.174
		c-0.022-0.084-0.045-0.167-0.07-0.249L518.191,311.979z M509.294,315.221c-0.042,0.246-0.083,0.5-0.124,0.759
		c-0.013-0.057-0.026-0.114-0.039-0.169c-0.036-0.188-0.083-0.378-0.135-0.589l-0.001-0.001H509.294z M507.337,315.238
		c0.001,0.007,0.003,0.014,0.005,0.02l0.208,0.883c0.098,0.47,0.203,0.98,0.311,1.535c-2.376,0.101-4.685,0.191-6.909,0.277
		l-1.968,0.077c0.109-0.934,0.225-1.822,0.345-2.646L507.337,315.238z M502.837,306.278c0.068-0.006,0.139-0.005,0.234,0.004
		l0.055-0.009c0.098,0.023,0.206,0.071,0.326,0.148l0.188-0.295l-0.1,0.353l0.188,0.155c0.093,0.083,0.187,0.165,0.27,0.268
		l0.108,0.111c0.068,0.077,0.137,0.167,0.215,0.27l0.288,0.427c0.044,0.068,0.089,0.138,0.132,0.211l0.38,0.7
		c0.074,0.148,0.111,0.23,0.158,0.333l0.047,0.104c0.104,0.206,0.195,0.4,0.292,0.666l0.059,0.142
		c0.068,0.165,0.109,0.264,0.171,0.439c0.036,0.086,0.069,0.17,0.1,0.254l-5.637,0.114
		C501.388,306.935,502.49,306.363,502.837,306.278z M506.523,312.186c0.068,0.216,0.136,0.436,0.199,0.669
		c0.076,0.245,0.143,0.5,0.209,0.754l-9.812,0.181c-0.003-0.013-0.006-0.026-0.009-0.039l-0.109-0.423
		c-0.084-0.317-0.173-0.634-0.268-0.95L506.523,312.186z M497.674,315.415c-0.022,0.151-0.044,0.303-0.065,0.455
		c-0.033-0.152-0.066-0.304-0.098-0.455H497.674z M495.841,315.452c0.182,0.787,0.365,1.673,0.556,2.685
		c-1.937,0.076-3.786,0.132-5.51,0.177l-1.499,0.049c0.016-0.897,0.058-1.813,0.128-2.784l6.264-0.126H495.841z M492.048,307.227
		l0.095-0.008l0.236,0.093h0.01c0.067,0.042,0.131,0.089,0.201,0.149l0.135,0.107l-0.003,0.005l0.179,0.199
		c0.049,0.055,0.103,0.113,0.16,0.196l0.091,0.126c0.107,0.155,0.214,0.322,0.318,0.483c0.031,0.051,0.059,0.107,0.089,0.164
		l0.081,0.189c0.052,0.083,0.094,0.167,0.143,0.276c0.239,0.468,0.462,0.974,0.699,1.597l-4.326,0.09
		C490.806,308.006,491.668,307.227,492.048,307.227z M495.038,312.404c0.139,0.454,0.27,0.9,0.39,1.341l0.026,0.092l-6.712,0.128
		h-0.808c-0.03-0.122-0.057-0.242-0.085-0.365c-0.045-0.213-0.081-0.329-0.139-0.519l-0.143-0.546L495.038,312.404z
		 M486.648,315.639l0.009,0.038c0.018,0.079,0.033,0.16,0.048,0.242c0.015,0.083,0.03,0.167,0.052,0.265l0.074,0.328
		c0.009,0.051,0.019,0.104,0.032,0.206c0.005,0.022,0.01,0.04,0.014,0.057l-0.006,0.01l0.23,1.254
		c0.023,0.148,0.046,0.27,0.068,0.385c-1.844,0.056-3.643,0.105-5.411,0.153l-0.65,0.018c0.058-0.936,0.134-1.891,0.225-2.845
		L486.648,315.639z M483.522,307.735c0.047,0.024,0.083,0.033,0.069,0.023l0.201,0.137c0.021,0.019,0.042,0.037,0.098,0.1
		c0.027,0.028,0.063,0.063,0.101,0.111c0.055,0.066,0.131,0.164,0.218,0.29c0.024,0.029,0.041,0.063,0.059,0.094
		c0.021,0.038,0.043,0.074,0.068,0.113c0.046,0.081,0.092,0.161,0.133,0.223l0.057,0.107c0.027,0.05,0.055,0.1,0.097,0.199
		c0.072,0.128,0.137,0.272,0.21,0.429l0.102,0.221c0.021,0.047,0.04,0.097,0.058,0.147c0.015,0.04,0.029,0.08,0.045,0.119
		l0.037,0.135c0.024,0.047,0.044,0.098,0.064,0.151l0.066,0.188c0.046,0.127,0.095,0.262,0.144,0.401l-3.314,0.066
		C482.711,308.085,483.444,307.761,483.522,307.735z M485.886,312.586c0.024,0.089,0.048,0.181,0.074,0.274l0.209,0.86
		c0.022,0.083,0.045,0.168,0.065,0.262c0.001,0.002,0.001,0.003,0.001,0.005l-6.799,0.141l-0.188-0.744
		c-0.053-0.221-0.111-0.446-0.177-0.679L485.886,312.586z M478.171,315.809l0.091,0.385c0.06,0.277,0.121,0.567,0.182,0.862
		l0.093,0.496c0.042,0.233,0.085,0.473,0.135,0.703c0.022,0.119,0.043,0.239,0.07,0.409c-2.07,0.055-4.098,0.102-6.072,0.149
		l-1.053,0.025c0.117-1.108,0.236-2.061,0.361-2.896L478.171,315.809z M475.992,306.598l-0.002,0.003c0,0-0.001,0-0.001-0.001
		L475.992,306.598z M474.425,307.391l0.134-0.09c0.057-0.038,0.1-0.044,0.213-0.005c0.119,0.051,0.216,0.119,0.374,0.277
		c0.073,0.073,0.135,0.146,0.207,0.242c0.1,0.122,0.188,0.254,0.294,0.41c0.023,0.03,0.038,0.053,0.082,0.131
		c0.02,0.028,0.048,0.083,0.076,0.135l0.182,0.341c0.018,0.033,0.032,0.064,0.046,0.094c0.022,0.048,0.044,0.096,0.057,0.114
		l0.043,0.094l0.313-0.151c0,0,0,0,0,0l-0.267,0.26c0.068,0.143,0.135,0.301,0.21,0.474l0.283,0.699
		c0.051,0.152,0.114,0.317,0.157,0.424l0.042,0.121c0.012,0.046,0.031,0.102,0.048,0.143l-4.076,0.079
		C473.48,308.538,474.12,307.669,474.425,307.391z M477.4,312.756c0.111,0.377,0.208,0.718,0.294,1.047l0.063,0.263
		c0.01,0.038,0.02,0.076,0.031,0.114l-8.343,0.169l-0.033-0.12c-0.083-0.303-0.165-0.598-0.244-0.829
		c-0.042-0.152-0.087-0.299-0.131-0.445l-0.01-0.032L477.4,312.756z M470.316,315.968c-0.052,0.378-0.101,0.761-0.148,1.147
		l-0.286-1.139L470.316,315.968z M468.189,316.015l0.445,1.741c0.08,0.367,0.167,0.748,0.256,1.136l-7.051,0.152
		c0.1-1.021,0.206-1.993,0.313-2.896L468.189,316.015z M464.573,307.833h0.229l0.399,0.38c0.096,0.107,0.182,0.225,0.259,0.347
		l0.062,0.084l0.277-0.205c0,0,0.001,0.001,0.001,0.001l-0.225,0.292c0.227,0.367,0.437,0.777,0.651,1.269
		c0.046,0.091,0.088,0.19,0.13,0.29c0.048,0.113,0.097,0.225,0.138,0.305c0.084,0.202,0.169,0.417,0.253,0.643l-3.784,0.087
		C463.699,308.364,464.392,307.904,464.573,307.833z M467.309,312.95l0.28,0.918c0.054,0.162,0.104,0.335,0.154,0.518l-8.392,0.18
		l-0.524-1.427L467.309,312.95z M460.509,316.221c-0.059,0.48-0.117,0.994-0.173,1.55l-0.447-1.54L460.509,316.221z
		 M458.191,316.233l0.27,0.897c0.046,0.147,0.091,0.295,0.136,0.453l0.36,1.293c0.017,0.073,0.036,0.148,0.055,0.224
		c-2.189,0.051-4.295,0.084-6.324,0.116c0.111-0.935,0.246-1.878,0.413-2.864c0.849-0.021,1.705-0.04,2.566-0.06L458.191,316.233z
		 M455.182,310.328h0.131c0.037,0.018,0.074,0.036,0.115,0.055l0.266,0.266c0.072,0.072,0.131,0.154,0.203,0.257l0.364,0.55
		c0.014,0.018,0.028,0.042,0.048,0.078l-1.774,0.045h-0.242C454.731,310.593,455.067,310.376,455.182,310.328z M457.097,313.181
		c0.044,0.103,0.088,0.21,0.133,0.32l0.129,0.309c0.103,0.267,0.197,0.524,0.289,0.795l-6.785,0.153
		c-0.139-0.53-0.272-0.998-0.403-1.415L457.097,313.181z M451.444,316.394c-0.03,0.182-0.059,0.361-0.087,0.538
		c-0.039-0.181-0.078-0.358-0.117-0.533L451.444,316.394z M449.595,316.427c0.183,0.808,0.333,1.542,0.454,2.236
		c0.034,0.203,0.068,0.397,0.109,0.59c-2.659,0.042-5.161,0.076-7.524,0.098c0.165-0.926,0.363-1.854,0.589-2.769L449.595,316.427z
		 M446.481,309.892c0.003,0,0.005,0,0.009,0l0.161,0.025l0.217,0.108c0.032,0.016,0.063,0.041,0.117,0.081l0.201,0.202
		c0.025,0.031,0.053,0.065,0.064,0.071l0.099,0.124c0.139,0.171,0.274,0.371,0.407,0.616l0.202,0.371
		c0.042,0.078,0.083,0.157,0.132,0.262l-3.316,0.091C445.488,310.41,446.123,309.892,446.481,309.892z M448.754,313.399
		c0.153,0.455,0.298,0.946,0.431,1.413l-8.966,0.225l-0.125-0.398c-0.048-0.16-0.096-0.309-0.144-0.458l-0.167-0.512
		L448.754,313.399z M441.543,316.627c-0.132,0.567-0.264,1.181-0.396,1.835c-0.006-0.027-0.013-0.054-0.02-0.082l-0.033-0.124
		c-0.025-0.091-0.042-0.15-0.064-0.266l-0.355-1.34L441.543,316.627z M438.996,316.693l0.494,1.891
		c0.016,0.074,0.033,0.147,0.053,0.219l0.128,0.51c0.005,0.025,0.01,0.048,0.014,0.072c-2.089,0.025-4.044,0.044-5.863,0.062
		l-1.385,0.014c0.171-0.961,0.345-1.836,0.52-2.611C434.909,316.793,436.922,316.738,438.996,316.693z M435.806,309.902
		c0.001,0,0.002,0,0.002,0l0.299,0.127c0.025,0.025,0.055,0.051,0.112,0.1c0.123,0.134,0.246,0.279,0.347,0.424l0.075,0.107
		c0.172,0.275,0.35,0.559,0.492,0.866c0.093,0.186,0.186,0.381,0.278,0.578l-3.13,0.109
		C435.147,309.941,435.769,309.902,435.806,309.902z M433.171,313.901h0.001c1.591-0.069,3.215-0.128,4.894-0.185
		c0.031,0.087,0.061,0.175,0.093,0.266l0.168,0.485c0.044,0.127,0.085,0.259,0.126,0.395l0.066,0.214
		c-2.141,0.047-4.218,0.104-6.233,0.16l-2.483,0.077l-0.07-0.172c-0.042-0.103-0.081-0.201-0.128-0.294
		c-0.043-0.086-0.098-0.218-0.153-0.345l-0.028-0.066l-0.104-0.272c-0.019-0.039-0.038-0.078-0.057-0.115L433.171,313.901z
		 M431.301,316.9c-0.121,0.556-0.238,1.141-0.363,1.803c-0.154-0.587-0.33-1.179-0.527-1.768c0.29-0.008,0.582-0.021,0.877-0.034
		L431.301,316.9z M428.676,316.973c0.305,0.862,0.553,1.686,0.757,2.505c-3.574,0.021-6.444,0.022-8.579,0.022
		c0.01-0.742,0.055-1.509,0.132-2.289C423.381,317.143,425.954,317.063,428.676,316.973z M428.228,314.944
		C428.228,314.944,428.228,314.944,428.228,314.944L428.228,314.944L428.228,314.944z M423.817,311.03l0.369-0.007l0.191,0.009
		l0.042-0.011l0.515,0.189c0.078,0.04,0.15,0.085,0.225,0.135l0.06,0.079c0.02,0.02,0.051,0.044,0.048,0.037l0.271,0.21
		c0.303,0.264,0.578,0.547,0.819,0.843c-1.583,0.066-2.98,0.131-4.264,0.197C422.596,311.741,423.185,311.165,423.817,311.03z
		 M406.043,316.182h-0.003c-1.764,0.113-3.039,0.208-3.904,0.292c-1.201,0.13-2.068,0.225-2.068,1.099
		c0,1.191,1.417,1.721,2.801,2.23c-0.318,0.072-0.631,0.13-0.936,0.175c-5.224,0.902-8.485-0.025-9.71-1.109
		c-0.339-0.257-0.52-0.589-0.548-1.007c0.18-0.175,1.323-0.984,7.589-1.795c4.965-0.644,12.047-1.186,21.654-1.658
		c1.86-0.094,3.937-0.188,6.51-0.293l0.053,0.1c0.065,0.109,0.131,0.229,0.197,0.383c0.046,0.106,0.087,0.182,0.126,0.255
		c0.025,0.044,0.048,0.087,0.071,0.139l0.318-0.145l-0.277,0.253c0.042,0.083,0.08,0.167,0.116,0.248
		c-1.312,0.039-2.588,0.079-3.824,0.118c-1.374,0.043-2.699,0.085-3.973,0.121C414.381,315.783,409.474,315.989,406.043,316.182z
		 M569.453,317.824c6.148,8.638,11.182,36.838,13.842,60.35c3.178,27.987,3.485,51.518,0.746,57.222v0.001
		c-2.855,5.962-42.536,15.452-86.033,15.887h-3.125c-42.227,0-82.239-8.73-85.375-15.876c-3.298-7.514-4.679-28.478-3.435-52.166
		c1.34-25.82,5.355-48.291,10.738-60.111c0.274-0.615,0.683-1.092,1.251-1.46c0.559-0.362,1.163-0.537,1.845-0.537
		c5.174,0.016,15.825-0.004,31.455-0.256l0.108,0.634l0.076-0.638c5.598-0.091,11.827-0.211,18.672-0.371l0.216,0.983l0.092-0.99
		c3.051-0.072,6.223-0.152,9.515-0.239l0.034,0.168l0.01-0.169c3.484-0.094,7.099-0.196,10.846-0.309
		c2.078-0.062,4.327-0.139,6.708-0.226l0.15,0.808l0.085-0.817c24.915-0.92,63.877-3.052,68.634-3.314
		C567.767,316.331,568.723,316.797,569.453,317.824z M567.574,312.542c-0.056-0.186-0.112-0.371-0.169-0.548
		c-0.087-0.277-0.178-0.559-0.275-0.838c10.294-0.173,18.143-0.288,22.332-0.328c-0.002,0.194,0,0.388,0.028,0.58
		c0.035,0.242,0.107,0.478,0.19,0.71C585.655,312.185,578.037,312.329,567.574,312.542z"/>
	<path d="M439.436,336.826c-2.696,0.536-5.567,3.738-7.115,7.816c-1.802-4.285-4.636-7.355-7.244-7.783
		c-1.465-0.241-2.81,0.339-3.876,1.677c-1.648,2.057-1.713,4.778-0.229,7.897c0.642,1.344,1.485,2.588,2.427,3.738
		c0.952,1.162,2.014,2.237,3.163,3.205c1.004,0.846,2.081,1.625,3.248,2.233c0.42,0.219,0.897,0.432,1.393,0.582
		c0.449,0.136,0.918,0.225,1.389,0.213c0.716-0.017,1.427-0.281,2.069-0.581c0.542-0.254,1.061-0.556,1.561-0.885
		c1.162-0.765,2.229-1.674,3.214-2.654c1.048-1.043,2.01-2.179,2.846-3.399c0.511-0.746,0.977-1.527,1.365-2.344
		c1.554-3.27,1.454-6.106-0.276-8.191C442.305,337.049,440.938,336.524,439.436,336.826z"/>
	<path d="M472.499,360.53c-2.696,0.536-5.567,3.738-7.115,7.816c-1.802-4.285-4.636-7.355-7.244-7.783
		c-1.465-0.241-2.81,0.339-3.876,1.678c-1.648,2.057-1.713,4.778-0.229,7.897c0.642,1.344,1.485,2.588,2.427,3.738
		c0.952,1.162,2.014,2.237,3.163,3.205c1.004,0.846,2.081,1.625,3.248,2.233c0.42,0.219,0.897,0.431,1.393,0.582
		c0.449,0.136,0.918,0.225,1.389,0.213c0.716-0.017,1.427-0.281,2.069-0.581c0.542-0.254,1.061-0.556,1.561-0.885
		c1.162-0.765,2.229-1.674,3.214-2.654c1.048-1.043,2.01-2.179,2.846-3.399c0.511-0.746,0.977-1.527,1.365-2.344
		c1.554-3.27,1.454-6.106-0.276-8.191C475.367,360.753,474,360.229,472.499,360.53z"/>
	<path d="M491.813,352.443c1.004,0.846,2.081,1.625,3.248,2.233c0.42,0.219,0.897,0.431,1.393,0.582
		c0.449,0.136,0.918,0.225,1.389,0.213c0.716-0.017,1.427-0.281,2.069-0.581c0.542-0.254,1.061-0.556,1.561-0.885
		c1.162-0.765,2.229-1.674,3.214-2.654c1.048-1.043,2.01-2.179,2.846-3.399c0.511-0.746,0.977-1.527,1.365-2.344
		c1.554-3.27,1.454-6.106-0.276-8.191c-1.066-1.3-2.433-1.825-3.934-1.523c-2.696,0.536-5.567,3.738-7.115,7.816
		c-1.801-4.285-4.636-7.355-7.244-7.783c-1.465-0.241-2.81,0.339-3.876,1.678c-1.648,2.057-1.713,4.778-0.229,7.897
		c0.642,1.344,1.485,2.588,2.427,3.738C489.602,350.4,490.664,351.475,491.813,352.443z"/>
	<path d="M526.717,379.313c0.42,0.219,0.897,0.431,1.393,0.582c0.449,0.136,0.918,0.225,1.389,0.213
		c0.716-0.017,1.427-0.281,2.069-0.581c0.542-0.254,1.061-0.556,1.561-0.885c1.162-0.765,2.229-1.674,3.214-2.654
		c1.048-1.043,2.01-2.179,2.846-3.399c0.511-0.746,0.977-1.527,1.365-2.344c1.554-3.27,1.454-6.106-0.276-8.191
		c-1.066-1.3-2.433-1.825-3.934-1.523c-2.696,0.536-5.567,3.738-7.115,7.816c-1.802-4.285-4.636-7.355-7.244-7.783
		c-1.466-0.241-2.81,0.339-3.876,1.678c-1.648,2.057-1.713,4.778-0.229,7.897c0.642,1.344,1.485,2.588,2.427,3.738
		c0.952,1.162,2.014,2.237,3.163,3.205C524.473,377.926,525.55,378.706,526.717,379.313z"/>
	<path d="M569.01,383.919c-2.696,0.536-5.567,3.738-7.115,7.816c-1.802-4.285-4.636-7.355-7.244-7.783
		c-1.465-0.241-2.81,0.339-3.876,1.677c-1.648,2.057-1.713,4.779-0.229,7.897c0.642,1.344,1.485,2.588,2.427,3.738
		c0.952,1.162,2.014,2.237,3.163,3.205c1.004,0.846,2.081,1.625,3.248,2.233c0.42,0.219,0.897,0.432,1.393,0.582
		c0.449,0.136,0.918,0.225,1.389,0.213c0.716-0.017,1.427-0.281,2.069-0.581c0.542-0.254,1.061-0.556,1.561-0.885
		c1.162-0.765,2.229-1.674,3.214-2.654c1.048-1.043,2.01-2.179,2.846-3.399c0.511-0.746,0.977-1.527,1.365-2.344
		c1.554-3.27,1.454-6.106-0.276-8.191C571.878,384.143,570.511,383.618,569.01,383.919z"/>
	<path d="M506.958,387.891c-2.696,0.536-5.567,3.738-7.115,7.816c-1.801-4.285-4.636-7.355-7.244-7.783
		c-1.465-0.241-2.81,0.339-3.876,1.678c-1.648,2.057-1.713,4.779-0.229,7.897c0.642,1.344,1.485,2.588,2.427,3.738
		c0.952,1.162,2.014,2.237,3.163,3.205c1.004,0.846,2.081,1.625,3.248,2.233c0.42,0.219,0.897,0.431,1.393,0.582
		c0.449,0.136,0.918,0.225,1.389,0.213c0.716-0.017,1.427-0.281,2.069-0.581c0.542-0.254,1.061-0.556,1.561-0.885
		c1.162-0.765,2.229-1.674,3.214-2.654c1.048-1.043,2.01-2.179,2.846-3.399c0.511-0.746,0.977-1.527,1.365-2.344
		c1.554-3.27,1.454-6.106-0.276-8.191C509.827,388.115,508.46,387.59,506.958,387.891z"/>
	<path d="M439.129,386.191c-2.696,0.536-5.567,3.738-7.115,7.816c-1.801-4.285-4.636-7.355-7.244-7.783
		c-1.466-0.241-2.81,0.339-3.876,1.677c-1.648,2.057-1.713,4.778-0.229,7.897c0.642,1.344,1.485,2.588,2.427,3.738
		c0.952,1.162,2.014,2.237,3.163,3.205c1.004,0.846,2.081,1.625,3.248,2.233c0.42,0.219,0.897,0.432,1.393,0.582
		c0.449,0.136,0.918,0.225,1.389,0.213c0.716-0.017,1.427-0.281,2.069-0.581c0.542-0.254,1.061-0.556,1.561-0.885
		c1.162-0.765,2.229-1.674,3.214-2.654c1.048-1.043,2.01-2.179,2.846-3.399c0.511-0.746,0.977-1.527,1.365-2.344
		c1.554-3.27,1.454-6.106-0.276-8.191C441.997,386.414,440.63,385.89,439.129,386.191z"/>
	<path d="M470.677,418.153c-2.696,0.536-5.567,3.738-7.115,7.816c-1.801-4.285-4.636-7.355-7.244-7.783
		c-1.465-0.241-2.81,0.339-3.876,1.677c-1.648,2.057-1.713,4.778-0.229,7.897c0.642,1.344,1.485,2.588,2.427,3.738
		c0.952,1.162,2.014,2.237,3.163,3.205c1.004,0.846,2.081,1.625,3.248,2.233c0.42,0.219,0.897,0.432,1.393,0.582
		c0.449,0.136,0.918,0.225,1.388,0.213c0.716-0.017,1.427-0.281,2.069-0.581c0.542-0.254,1.061-0.556,1.561-0.885
		c1.162-0.765,2.229-1.674,3.214-2.654c1.048-1.043,2.01-2.179,2.846-3.399c0.511-0.746,0.977-1.527,1.365-2.344
		c1.554-3.27,1.454-6.106-0.276-8.191C473.545,418.376,472.178,417.851,470.677,418.153z"/>
	<path d="M542.805,417.445c-2.696,0.536-5.567,3.738-7.115,7.816c-1.801-4.285-4.636-7.355-7.244-7.783
		c-1.465-0.241-2.81,0.339-3.876,1.677c-1.648,2.057-1.713,4.778-0.229,7.897c0.642,1.344,1.485,2.588,2.427,3.738
		c0.952,1.162,2.014,2.237,3.163,3.205c1.004,0.846,2.081,1.625,3.248,2.233c0.42,0.219,0.897,0.432,1.393,0.582
		c0.449,0.136,0.918,0.225,1.389,0.213c0.716-0.017,1.427-0.281,2.069-0.581c0.542-0.254,1.061-0.556,1.561-0.885
		c1.162-0.765,2.229-1.674,3.214-2.654c1.048-1.043,2.01-2.179,2.846-3.399c0.511-0.746,0.977-1.527,1.365-2.344
		c1.554-3.27,1.454-6.106-0.276-8.191C545.673,417.668,544.306,417.143,542.805,417.445z"/>
	<path d="M558.516,340.41c-1.802-4.285-4.636-7.355-7.244-7.783c-1.465-0.24-2.81,0.339-3.876,1.678
		c-1.648,2.057-1.713,4.779-0.229,7.897c0.642,1.344,1.485,2.588,2.427,3.738c0.952,1.162,2.014,2.237,3.163,3.205
		c1.004,0.846,2.081,1.625,3.248,2.233c0.42,0.219,0.897,0.431,1.393,0.582c0.449,0.136,0.918,0.225,1.388,0.214
		c0.716-0.017,1.427-0.281,2.069-0.581c0.542-0.254,1.061-0.556,1.561-0.885c1.162-0.765,2.229-1.674,3.214-2.654
		c1.048-1.043,2.01-2.179,2.846-3.399c0.511-0.746,0.977-1.527,1.365-2.344c1.554-3.27,1.454-6.106-0.276-8.191
		c-1.066-1.3-2.433-1.825-3.934-1.523C562.935,333.13,560.064,336.332,558.516,340.41z"/>
</g>
</svg>
