<?xml version="1.0" encoding="UTF-8" standalone="no"?><!DOCTYPE svg PUBLIC "-//W3C//DTD SVG 1.1//EN" "http://www.w3.org/Graphics/SVG/1.1/DTD/svg11.dtd"><svg width="100%" height="100%" viewBox="0 0 653 136" version="1.1" xmlns="http://www.w3.org/2000/svg" xmlns:xlink="http://www.w3.org/1999/xlink" xml:space="preserve" xmlns:serif="http://www.serif.com/" style="fill-rule:evenodd;clip-rule:evenodd;stroke-linecap:round;stroke-linejoin:round;stroke-miterlimit:1.5;"><path d="M650.263,67.919c0,-36.336 -29.5,-65.836 -65.835,-65.836l-516.509,0c-36.336,0 -65.836,29.5 -65.836,65.836c0,36.335 29.5,65.835 65.836,65.835l516.509,0c36.335,0 65.835,-29.5 65.835,-65.835Z" style="fill:none;stroke:#000;stroke-width:4.17px;"/><path d="M537.787,52.413c-7.981,-1.492 40.222,0.253 32.331,2.263c-6.319,1.61 -14.516,0.916 -19.693,5.039c-0.2,0.16 -13.551,4.814 -13.213,4.935c1.663,0.597 11.005,2.012 19.306,3.406c6.456,1.084 12.283,2.155 13.377,2.819c0.123,0.074 -32.906,1.923 -33.48,4.419c-2.494,10.843 5.185,5.405 14.615,6.879c9.763,1.526 18.5,-1.027 25.994,-0.444" style="fill:none;stroke:#000;stroke-opacity:0.5;stroke-width:8.33px;"/><path d="M482.606,52.194c-17.109,5.222 -37.766,0.156 -37.766,0.156c-16.468,12.72 33.696,17.983 34.011,18.113c2.753,1.131 -36.03,6.212 -35.924,8.917c0.151,3.83 10.031,1.16 18.812,2.732c9.091,1.627 12.924,0.116 19.902,0.738" style="fill:none;stroke:#000;stroke-opacity:0.5;stroke-width:8.33px;"/><path d="M345.179,55.035c4.14,-4.864 47.857,-6.04 41.215,3.378c-0.542,0.769 -19.418,2.116 -25.492,4.013c-10.356,3.235 30.638,0.592 24.269,2.627c-8.483,2.711 -27.506,5.575 -32.295,12.088c-3.844,5.227 32.086,1.254 33.684,6.978" style="fill:none;stroke:#000;stroke-opacity:0.5;stroke-width:8.33px;"/><path d="M287.28,54.168c5.28,0.765 13.281,3.112 11.988,3.533c-8.525,2.776 -21.909,-0.969 -30.686,-1.852c-3.252,-0.327 -13.449,-2.871 -13.092,-1.56c0.463,1.701 5.069,2.978 6.089,3.459c7.495,3.533 15.565,7.112 23.327,9.423c2.693,0.802 5.255,1.416 8.018,1.469c1.158,0.021 4.613,-0.344 3.46,-0.254c-7.595,0.595 -17.994,-0.968 -25.087,2.37c-1.587,0.748 -8.582,4.211 -10.119,5.085c-0.192,0.11 26.265,-1.967 29.142,11.057" style="fill:none;stroke:#000;stroke-width:8.33px;"/><path d="M174.354,52.133c8.205,0 16.425,-0.261 24.614,0.64c0.781,0.086 9.969,0.111 9.808,2.889c-0.173,2.993 -4.383,4.721 -5.806,5.423c-7.468,3.686 -18.055,7.6 -22.009,7.831c-2.717,0.16 -4.408,-0.011 -8.409,-0.938c-1.147,-0.266 -5.807,-1.772 -4.685,-2.201c3.502,-1.337 12.797,-1.626 15.734,1.951c1.212,1.476 8.266,5.805 11.14,7.671c1.293,0.839 11.141,4.842 11.108,7.456c-0.011,0.89 -27.905,-9.14 -32.397,-0.632" style="fill:none;stroke:#000;stroke-width:8.33px;"/><path d="M119.6,52.837c-9.279,0 -18.465,-0.175 -27.73,-0.704c-2.539,-0.144 -5.08,-0.265 -7.621,-0.369c-0.887,-0.037 -3.081,-0.336 -2.632,0.405c1.316,2.171 7.158,4.688 8.165,5.178c10.304,5.014 21.714,9.249 32.608,12.922c1.095,0.369 -2.318,0.043 -3.478,0.043l-35.244,-0c2.282,-0 33.549,5.197 32.171,5.077c-2.841,-0.249 -16.21,-1.181 -19.034,-0.557c-1.912,0.423 5.578,7.537 4.248,7.62c-2.678,0.167 -18.442,-0.33 -10.495,-0.33" style="fill:none;stroke:#000;stroke-width:8.33px;"/></svg>