<?xml version="1.0" encoding="UTF-8" standalone="no"?><!DOCTYPE svg PUBLIC "-//W3C//DTD SVG 1.1//EN" "http://www.w3.org/Graphics/SVG/1.1/DTD/svg11.dtd"><svg width="100%" height="100%" viewBox="0 0 6000 3750" version="1.1" xmlns="http://www.w3.org/2000/svg" xmlns:xlink="http://www.w3.org/1999/xlink" xml:space="preserve" xmlns:serif="http://www.serif.com/" style="fill-rule:evenodd;clip-rule:evenodd;stroke-linejoin:round;stroke-miterlimit:2;"><path d="M4141.59,1735.96c62.169,6.174 127.017,-10.253 178.534,25.087c61.199,41.982 116.422,104.343 118.298,178.533c1.902,75.224 -59.184,131.429 -109.035,187.796c-54.867,62.042 -105.615,137.566 -187.797,147.845c-89.121,11.146 -177.48,-31.145 -241.488,-94.153c-64.495,-63.49 -104.116,-151.105 -99.474,-241.488c4.448,-86.602 48.617,-173.433 123.068,-217.895c64.964,-38.796 142.597,6.8 217.894,14.275Z" style="fill:#e8835b;"/><path d="M1892.37,775.234c23.744,2.358 48.51,-3.916 68.186,9.581c23.373,16.034 44.463,39.851 45.18,68.185c0.726,28.73 -22.604,50.196 -41.643,71.723c-20.955,23.695 -40.336,52.539 -71.723,56.465c-34.037,4.257 -67.783,-11.895 -92.229,-35.959c-24.632,-24.248 -39.764,-57.71 -37.991,-92.229c1.699,-33.075 18.568,-66.237 47.002,-83.218c24.811,-14.817 54.461,2.597 83.218,5.452Z" style="fill:#5d7147;"/><path d="M1004.58,367.032c95.578,9.491 195.276,-15.764 274.478,38.569c94.088,64.542 178.988,160.416 181.872,274.477c2.925,115.65 -90.99,202.06 -167.63,288.719c-84.354,95.383 -162.373,211.494 -288.72,227.297c-137.016,17.136 -272.86,-47.882 -371.265,-144.751c-99.156,-97.61 -160.069,-232.31 -152.933,-371.265c6.84,-133.142 74.745,-266.637 189.206,-334.993c99.876,-59.645 219.23,10.454 334.992,21.947Z" style="fill:#c3d0b4;"/><path d="M3884.37,233.505c196.898,-15.748 413.171,-78.442 568.319,43.775c164.851,129.822 223.241,359.014 208.835,568.337c-13.525,197.006 -164.704,336.328 -281.926,495.243c-153.502,208.117 -239.47,519.987 -495.228,558.314c-264.549,39.644 -482.263,-193.011 -669.841,-383.717c-185.549,-188.624 -408.496,-408.619 -366.482,-669.84c40.426,-251.243 333.053,-354.755 552.149,-484.171c149.415,-88.253 311.179,-114.108 484.174,-127.941Z" style="fill:#fb9;"/><path d="M5498,402.216c52.29,24.86 116.38,40.642 137.852,94.405c22.821,57.116 4.053,123.854 -30.283,174.88c-32.307,48.028 -91.103,61.238 -144.15,84.398c-69.468,30.333 -136.999,96.902 -207.541,69.147c-72.966,-28.708 -94.135,-119.676 -113.802,-195.579c-19.456,-75.076 -43.809,-163.597 5.141,-223.751c47.085,-57.853 136.539,-41.242 211.124,-41.983c50.863,-0.505 95.716,16.64 141.659,38.483Z" style="fill:#e8835b;"/><path d="M1745.32,3198.98c36.893,-0.29 76.581,-0.183 103.474,25.676c27.465,26.41 37.493,67.591 33.404,105.941c-3.722,34.91 -24.637,66.549 -53.771,85.086c-24.468,15.564 -54.357,3.821 -83.107,1.991c-25.7,-1.632 -51.341,1.678 -73.388,-11.943c-29.596,-18.282 -62.015,-40.202 -67.565,-75.134c-6.07,-38.212 11.119,-78.237 39.058,-104.324c26.966,-25.18 65.399,-27.005 101.895,-27.293Z" style="fill:#e2b33c;"/><path d="M520.574,1766.85c-46.088,12.65 -61.601,67.085 -84.416,109.089c-21.19,39.015 -45.472,77.303 -40.803,121.46c5.35,50.56 24.118,103.674 67.423,130.294c43.501,26.75 100.577,22.238 147.353,1.755c40.626,-17.786 52.518,-65.118 78.863,-100.794c31.615,-42.8 97.945,-73.251 88.351,-125.599c-9.58,-52.283 -80.14,-60.968 -127.092,-85.875c-42.578,-22.589 -83.198,-63.087 -129.679,-50.33Z" style="fill:#e2b33c;"/><path d="M2178.24,278.319c45.378,7.211 72.657,48.223 105.496,80.386c33.447,32.763 77.284,59.268 84.355,105.569c7.889,51.699 -2.212,115.575 -46.318,143.63c-42.51,27.036 -93.197,-21.352 -143.533,-22.872c-47.074,-1.422 -100.987,46.912 -135.128,14.457c-34.006,-32.328 9.799,-88.307 8.091,-135.215c-1.843,-50.758 -46.939,-103.497 -18.296,-145.428c29.503,-43.188 93.7,-48.732 145.333,-40.527Z" style="fill:#5d7147;"/><path d="M5027.74,2.787c5.483,11.721 10.752,23.633 15.8,35.719c34.525,82.664 53.063,170.906 53.607,255.186c0.592,91.693 -19.277,175.901 -59.057,250.288c-73.512,137.473 -233.512,192.265 -391.093,236.605c-32.822,9.235 -65.047,12.783 -97.155,12.785c-51.315,0 -102.355,-9.058 -155.206,-18.435c-36.964,-6.559 -75.186,-13.34 -113.809,-16.81c-68.714,-6.169 -143.437,1.901 -215.698,9.706c-73.349,7.925 -149.194,16.12 -216.572,8.761c-75.921,-8.292 -133.572,-35.91 -176.254,-84.433c-67.851,-77.132 -101.782,-183.589 -98.124,-307.864c3.242,-110.199 37.528,-228.722 94.066,-325.178c12.004,-20.478 26.344,-39.213 43.164,-56.33l11.748,0c-18.004,17.417 -34.012,37.401 -47.604,60.589c-108.321,184.801 -142.033,458.211 3.114,623.216c91.975,104.562 234.574,89.158 385.552,72.848c54.574,-5.897 110.549,-11.944 164.499,-11.944c17.888,0 35.55,0.665 52.869,2.221l0.002,-0c38.984,3.501 77.389,10.316 114.528,16.907c84.943,15.071 165.171,29.306 248.581,5.835c155.823,-43.845 313.977,-97.91 385.923,-232.451c76.077,-142.267 77.937,-323.872 5.105,-498.256c-5.066,-12.129 -10.83,-25.205 -17.331,-38.965l9.345,0Z" style="fill-rule:nonzero;"/><path d="M1021.66,2.787c82.518,55.749 151.536,115.367 158.383,211.912c9.149,129.808 -94.856,220.97 -195.409,309.132c-35.94,31.489 -73.083,64.052 -104.24,97.746c-31.836,34.39 -62.052,72.419 -91.3,109.198c-86.544,108.847 -176.041,221.399 -314.652,247.511c-43.886,8.267 -88.557,12.384 -133.149,12.384c-63.228,0 -126.351,-8.268 -186.914,-24.714c-62.1,-16.855 -119.933,-42.003 -171.557,-74.329l0,-12.22c136.482,87.904 314.434,121.619 489.686,88.606c134.794,-25.396 219.116,-131.456 308.405,-243.744c29.353,-36.93 59.725,-75.116 91.797,-109.791c31.549,-34.1 68.9,-66.843 105.023,-98.51c98.646,-86.48 200.663,-175.904 191.855,-300.531c-6.841,-96.744 -80.826,-155.775 -166.736,-212.65l18.808,0Z" style="fill-rule:nonzero;"/><path d="M-17.182,2758.23c14.905,-16.015 30.234,-31.607 45.938,-46.753c171.738,-165.612 410.509,-202.273 646.618,-236.406c264.531,-38.236 598.03,-172.512 770.645,31.536c174.489,206.279 -88.137,504.462 -88.651,774.647c-0.308,155.994 104.131,319.631 127.486,465.46l-1502.04,-0l0,-988.484Z" style="fill:#efde8a;"/><path d="M2224.86,3746.71l1190.93,-0c-4.231,-2.173 -8.474,-4.387 -12.686,-6.621c-270.917,-143.725 -529.375,-401.409 -825.125,-320.242c-164.983,45.285 -268.389,174.722 -353.124,326.863Z" style="fill:#e2b33c;"/><path d="M4107.31,3746.71c-1.459,-125.056 12.734,-251.355 37.068,-369.633c64.334,-312.708 343.333,-505.25 590.833,-706.854c217.209,-176.913 442.625,-377.029 722.418,-362.838c215.435,10.928 388.227,146.662 541.369,303.37l-0,1135.95l-1891.69,-0Z" style="fill:#90a479;"/><path d="M2686.16,3746.71c56.1,-62.008 128.054,-113.458 217.597,-155.862c115.525,-54.702 249.773,-89.935 379.6,-124.008c108.438,-28.461 220.569,-57.889 323.052,-98.727c87.941,-35.044 175.22,-81.224 259.622,-125.881c211.281,-111.792 429.761,-227.383 663.881,-166.191c159.863,41.78 306.328,133.729 435.332,273.302c99.398,107.541 187.773,244.075 257.49,397.367l-17.763,-0c-103.679,-225.562 -314.413,-559.754 -679.156,-655.082c-228.04,-59.596 -434.071,49.42 -652.208,164.839c-84.782,44.858 -172.449,91.244 -261.202,126.614c-103.404,41.204 -216.024,70.761 -324.935,99.343c-224.268,58.858 -438.129,114.986 -579.677,264.286l-21.633,-0Z" style="fill-rule:nonzero;"/></svg>