<?xml version="1.0" encoding="UTF-8" standalone="no"?><!DOCTYPE svg PUBLIC "-//W3C//DTD SVG 1.1//EN" "http://www.w3.org/Graphics/SVG/1.1/DTD/svg11.dtd"><svg width="100%" height="100%" viewBox="0 0 2089 1864" version="1.1" xmlns="http://www.w3.org/2000/svg" xmlns:xlink="http://www.w3.org/1999/xlink" xml:space="preserve" xmlns:serif="http://www.serif.com/" style="fill-rule:evenodd;clip-rule:evenodd;stroke-linejoin:round;stroke-miterlimit:2;"><path d="M1407.92,1551.24l-90.124,197.341l-40.167,-213.208l-215.542,-24.758l190.375,-104.067l-43.042,-212.642l157.792,148.9l188.916,-106.658l-92.833,196.083l159.833,146.725l-215.208,-27.716Z" style="fill-rule:nonzero;"/><path d="M1938.62,1369.88l-62.626,137.108l-27.875,-148.133l-149.75,-17.2l132.251,-72.308l-29.917,-147.734l109.625,103.45l131.291,-74.108l-64.541,136.242l111.042,101.933l-149.5,-19.25Z" style="fill-rule:nonzero;"/><path d="M1395.12,1037.98l-38.208,83.625l-17,-90.35l-91.333,-10.491l80.666,-44.1l-18.249,-90.109l66.874,63.1l80.041,-45.2l-39.333,83.092l67.709,62.175l-91.167,-11.742Z" style="fill-rule:nonzero;"/><path d="M1086.96,1788.28l-34.292,75.059l-15.293,-81.101l-81.958,-9.416l72.375,-39.575l-16.375,-80.883l60.042,56.633l71.875,-40.575l-35.333,74.592l60.791,55.808l-81.832,-10.542Z" style="fill-rule:nonzero;"/><path d="M910.166,1317.73l-18.542,40.666l-8.291,-43.941l-44.417,-5.1l39.25,-21.442l-8.875,-43.816l32.501,30.683l38.916,-21.984l-19.124,40.409l32.957,30.233l-44.375,-5.708Z" style="fill-rule:nonzero;"/><path d="M1848.92,1717.18l-18.584,40.667l-8.29,-43.933l-44.417,-5.1l39.249,-21.442l-8.874,-43.817l32.499,30.684l38.959,-21.984l-19.125,40.409l32.917,30.233l-44.334,-5.717Z" style="fill-rule:nonzero;"/><path d="M714.042,1487.73l-18.542,40.667l-8.291,-43.942l-44.417,-5.1l39.249,-21.441l-8.874,-43.817l32.499,30.683l38.918,-21.983l-19.126,40.408l32.959,30.234l-44.375,-5.709Z" style="fill-rule:nonzero;"/><path d="M1010.04,877.416l-119,260.509l-53.001,-281.458l-284.542,-32.684l251.335,-137.358l-56.877,-280.7l208.334,196.55l249.375,-140.8l-122.583,258.85l211.001,193.675l-284.042,-36.584Z" style="fill-rule:nonzero;"/><path d="M1710.58,638l-82.666,181l-36.834,-195.55l-197.667,-22.708l174.583,-95.442l-39.457,-195.025l144.708,136.566l173.291,-97.833l-85.166,179.842l146.584,134.567l-197.376,-25.417Z" style="fill-rule:nonzero;"/><path d="M993.125,199.883l-50.459,110.392l-22.457,-119.267l-120.543,-13.85l106.501,-58.208l-24.083,-118.95l88.249,83.292l105.666,-59.659l-51.917,109.684l89.376,82.075l-120.333,-15.509Z" style="fill-rule:nonzero;"/><path d="M586.292,1190.33l-45.25,99.083l-20.168,-107.058l-108.207,-12.425l95.583,-52.25l-21.625,-106.767l79.25,74.758l94.833,-53.558l-46.582,98.458l80.249,73.667l-108.083,-13.908Z" style="fill-rule:nonzero;"/><path d="M352.999,569.167l-24.54,53.674l-10.917,-57.999l-58.625,-6.734l51.791,-28.3l-11.709,-57.841l42.918,40.499l51.375,-29.016l-25.25,53.341l43.457,39.909l-58.5,-7.533Z" style="fill-rule:nonzero;"/><path d="M1592.17,1096.48l-24.542,53.683l-10.917,-58l-58.625,-6.733l51.791,-28.308l-11.707,-57.842l42.916,40.5l51.375,-29.008l-25.25,53.333l43.459,39.917l-58.5,-7.542Z" style="fill-rule:nonzero;"/><path d="M94.084,793.583l-24.5,53.675l-10.917,-57.992l-58.667,-6.733l51.792,-28.308l-11.708,-57.842l42.916,40.5l51.416,-29.008l-25.291,53.333l43.5,39.908l-58.541,-7.533Z" style="fill-rule:nonzero;"/></svg>