<?xml version="1.0" encoding="UTF-8" standalone="no"?><!DOCTYPE svg PUBLIC "-//W3C//DTD SVG 1.1//EN" "http://www.w3.org/Graphics/SVG/1.1/DTD/svg11.dtd"><svg width="100%" height="100%" viewBox="0 0 1075 170" version="1.1" xmlns="http://www.w3.org/2000/svg" xmlns:xlink="http://www.w3.org/1999/xlink" xml:space="preserve" xmlns:serif="http://www.serif.com/" style="fill-rule:evenodd;clip-rule:evenodd;stroke-linejoin:round;stroke-miterlimit:2;"><g><g><path d="M174.174,58.772c-1.463,-0.157 -3.555,-0.247 -8.167,-0.073c-4.596,0.174 -8.186,4.047 -8.012,8.643c0.165,4.353 3.649,7.805 7.923,8.008c-8.446,16.434 -19.468,36.237 -28.43,46.793c-3.866,4.553 -10.812,11.766 -18.278,17.929c-3.645,3.009 -7.392,5.797 -10.936,7.769c4.121,-7.803 7.874,-19.378 5.238,-35.661c-1.476,-9.111 -8.069,-17.082 -15.942,-23.017c-10.202,-7.692 -22.096,-11.992 -22.096,-11.992c-3.679,-1.331 -7.788,0.077 -9.878,3.383c-0,0 -11.639,18.412 -23.062,36.059c-15.713,24.272 -25.364,27.865 -37.332,32.72c-4.262,1.729 -6.318,6.593 -4.589,10.855c1.728,4.261 6.592,6.318 10.854,4.589c14.384,-5.835 26.174,-9.935 45.058,-39.107c7.44,-11.494 14.972,-23.312 19.346,-30.197c3.372,1.631 7.679,3.992 11.666,6.998c4.39,3.31 8.699,7.292 9.522,12.374c2.681,16.557 -3.832,26.312 -7.258,31.17c-1.45,2.056 -2.488,3.649 -2.962,4.719c-1.686,3.798 -0.808,6.703 0.427,8.709c4.742,7.701 12.737,9.612 22.557,6.013c13.735,-5.034 32.579,-23.35 40.37,-32.526c5.007,-5.898 10.645,-14.524 16.172,-23.91c0.295,5.842 0.776,12.115 0.949,16.307c0.801,19.382 15,33.626 24.601,37.161c11.669,4.297 21.393,1.035 30.692,-6.501c5.669,-4.595 11.211,-11.008 17.26,-17.624c0.662,3.391 1.623,6.618 2.857,9.534c5.598,13.227 16.259,20.378 29.658,15.363c11.298,-4.23 20.506,-12.054 28.121,-21.443c8.852,-10.914 15.509,-23.965 21.154,-34.912c-2.382,14.113 -4.99,27.782 -5.504,37.671c-0.302,5.795 0.13,10.562 1.235,13.921c1.354,4.115 3.723,6.822 6.612,8.391c6.329,3.436 14.329,3.121 23.064,-0.928c11.388,-5.279 24.734,-17.386 36.247,-29.636c1.432,9.192 5.344,17.354 14.145,23.489c8.749,6.099 21.745,6.189 35.861,1.45c14.874,-4.993 31.217,-15.049 43.74,-25.1c0.817,2.639 1.919,5.141 3.345,7.445c5.613,9.071 12.182,13.604 18.877,15.35c9.616,2.507 20.232,-0.939 30.384,-8.021c7.056,-4.923 12.174,-11.675 16.089,-18.679l0.112,0.64c2.211,11.79 8.12,21.505 19.386,24.601c6.927,1.903 15.964,-0.987 25.632,-8.227c12.386,-9.277 27.09,-25.796 41.461,-38.398c-0.642,5.737 -1.224,11.879 -1.347,16.13c-0.149,5.174 -2.627,11.415 -3.091,16.377c-0.473,5.054 0.616,9.319 3.204,12.455c2.464,2.987 6.608,5.564 14.032,5.575c2.131,0.003 4.412,-0.588 6.713,-2.047c2.538,-1.61 5.491,-4.794 8.378,-9.333c6.076,-9.551 13.062,-26.298 19.796,-39.742c-0.651,2.715 -1.26,5.527 -1.772,8.32c-2.199,12.01 -1.15,27.688 2.671,35.544c3.35,6.887 8.681,9.623 14.432,8.755c8.975,-1.354 15.172,-6.932 20.134,-15.349c4.84,-8.21 8.438,-19.668 15.087,-30.049c-0.774,3.98 -2.476,12.178 -1.897,20.17c0.543,7.51 3.08,14.734 8.633,19.71c4.268,3.824 10.668,5.138 17.75,4.069c11.461,-1.731 24.955,-9.586 24.955,-9.586c0.352,-0.207 0.685,-0.439 0.995,-0.694c10.249,11.117 28.971,13.094 43.184,7.228c6.354,-2.622 11.701,-6.708 15.21,-11.902c7.867,6.065 17.607,9.612 26.481,10.021c10.419,0.48 19.561,-3.266 24.652,-10.807c2.505,-3.711 5.024,-8.295 7.516,-13.492c0.572,3.112 1.359,6.389 2.369,9.454c1.919,5.824 4.784,10.85 8.022,13.663c8.841,7.682 20.912,10.032 33.112,8.781c13.166,-1.35 26.291,-6.924 34.721,-12.832c7.178,6.939 16.918,11.321 26.127,14.023c20.523,6.022 54.973,-3.013 71.603,-34.884c2.128,-4.078 0.545,-9.116 -3.533,-11.243c-4.077,-2.128 -9.115,-0.545 -11.243,3.532c-12.221,23.421 -37.054,31.028 -52.135,26.602c-6.593,-1.934 -13.894,-4.676 -18.983,-9.618c8.172,-9.311 19.794,-23.528 24.418,-34.296c4.335,-10.096 2.689,-18.249 -3.219,-22.569c-5.344,-3.909 -11.753,-4.061 -18.276,-1.024c-10.138,4.721 -20.585,18.626 -22.9,25.718c-4.005,12.27 -3.664,22.041 -0.895,29.867c-6.085,4.649 -16.801,9.059 -27.385,10.145c-7.491,0.768 -15.053,-0.067 -20.481,-4.783c-1.437,-1.248 -2.272,-3.714 -3.123,-6.298c-1.78,-5.401 -2.69,-11.671 -2.719,-15.161c-0.07,-8.552 2.758,-26.202 6.149,-44.182l5.845,-0.221c3.895,-0.148 8.733,0.329 13.34,-0.13c4.308,-0.429 8.431,-1.592 11.965,-3.901c3.85,-2.515 4.934,-7.683 2.419,-11.534c-2.516,-3.85 -7.684,-4.934 -11.535,-2.419c-1.787,1.168 -4.029,1.299 -6.229,1.385c-3.724,0.145 -7.472,-0.174 -10.59,-0.056l-1.428,0.054c3.559,-10.668 8.901,-24.684 10.796,-33.271c1.166,-5.284 0.89,-9.374 0.068,-11.508c-1.411,-3.666 -4.014,-5.566 -7.342,-6.159c-2.289,-0.408 -4.879,-0.083 -7.428,1.966c-1.619,1.302 -4.255,5.261 -6.347,11.716c-2.768,8.54 -5.956,22.731 -8.776,37.976l-11.304,0.428c-4.596,0.174 -8.186,4.046 -8.012,8.642c0.173,4.596 4.046,8.186 8.642,8.012l6.953,-0.263c-6.983,22.485 -15.48,45.94 -23.996,58.555c-2.015,2.985 -5.946,3.673 -10.071,3.483c-8.457,-0.389 -18.21,-5.18 -23.25,-13.222c-2.443,-3.898 -7.59,-5.079 -11.487,-2.637c-2.292,1.437 -3.645,3.81 -3.872,6.314c-0.453,0.857 -0.762,1.808 -0.892,2.825c-0.662,5.169 -5.318,8.47 -10.55,10.316c-8.305,2.93 -19.072,2.4 -24.205,-4.649c-3.6,-4.944 -3.783,-12.586 0.16,-23.376c2.197,-6.015 4.543,-10.293 7.136,-13.114c1.637,-1.781 3.263,-2.84 4.988,-3.116c3.999,-0.639 7.794,1.988 11.173,4.696c6.859,5.499 11.778,12.958 11.778,12.958c2.011,3.048 5.772,4.432 9.279,3.413c3.507,-1.018 5.942,-4.201 6.008,-7.852c0.106,-5.859 -3.187,-13.402 -9.34,-19.608c-7.829,-7.896 -19.938,-13.552 -32.16,-11.349c-8.1,1.459 -16.499,6.256 -23.637,16.782c-2.575,3.796 -4.736,9.799 -6.272,16.43c-2.071,8.94 -3.178,19.064 -3.687,24.833c-2.98,1.499 -7.377,3.491 -11.815,4.709c-1.757,0.482 -3.517,0.846 -5.167,0.93c-0.923,0.047 -1.829,0.336 -2.408,-0.183c-3.138,-2.812 -3.299,-7.498 -3.202,-11.701c0.138,-6.056 1.557,-11.669 1.968,-13.978c1.211,-6.797 7.722,-22.957 8.795,-26.482c1.252,-4.113 -0.281,-6.722 -0.571,-7.234c-1.323,-2.335 -3.202,-3.741 -5.434,-4.472c-1.977,-0.648 -4.562,-0.788 -7.543,0.412c-2.105,0.847 -4.935,2.731 -7.936,5.464c-5.252,4.782 -11.639,12.414 -15.816,18.325c-6.881,9.741 -10.93,20.666 -15.283,29.509c-2.304,4.68 -4.27,8.93 -7.882,10.764c-0.392,-1.104 -0.843,-2.517 -1.058,-3.717c-1.09,-6.067 -0.996,-13.863 0.174,-20.256c2.495,-13.627 6.809,-25.118 7.464,-27.696c0.814,-3.2 -0.063,-5.222 -0.335,-5.858c-2.995,-7.011 -7.259,-9.601 -10.871,-10.302c-2.913,-0.566 -6.024,-0.093 -9.175,1.818c-2.436,1.478 -5.139,4.13 -7.784,7.854c-8.452,11.898 -18.193,37.304 -26.464,51.492c-0.731,1.255 -1.679,2.608 -2.526,3.743c0.174,-1.088 0.383,-2.249 0.608,-3.185c0.973,-4.05 1.981,-8.261 2.089,-11.992c0.313,-10.871 3.669,-28.151 3.221,-33.446c-0.357,-4.231 -2.47,-6.49 -3.895,-7.521c-2.584,-1.87 -5.944,-2.845 -10.075,-0.18c-16.132,10.407 -33.923,30.539 -49.232,44.02c-4.469,3.936 -8.672,7.26 -12.541,9.35c-2.091,1.13 -3.841,2.167 -5.468,1.72c-4.954,-1.362 -6.449,-6.418 -7.421,-11.603c-2.351,-12.533 0.067,-27.467 -0.421,-31.204c-0.617,-4.727 -3.502,-6.633 -5.211,-7.398c-2.093,-0.937 -4.538,-1.222 -7.324,0.137c-3.199,1.559 -6.707,6.083 -9.538,13.105c-3.736,9.266 -7.806,24.558 -19.624,32.803c-5.669,3.955 -11.273,6.962 -16.643,5.562c-3.294,-0.859 -6.148,-3.53 -8.909,-7.992c-2.121,-3.428 -2.864,-7.565 -2.863,-11.906c4.386,-4.485 6.972,-8.114 15.696,-19.185c5.734,-7.277 28.428,-38.229 39.029,-60.091c3.708,-7.648 5.921,-14.417 6.17,-19.13c0.197,-3.746 -0.663,-6.749 -2.09,-8.994c-2.669,-4.198 -7.099,-6.292 -13.423,-3.723c-2.428,0.987 -5.667,3.183 -9.178,6.397c-6.35,5.81 -14.318,15.268 -20.626,23.625c-11.059,14.652 -15.078,22.255 -21.51,38.323c-1.196,2.987 -7.47,16.86 -9.783,31.61c-0.189,1.206 -0.35,2.417 -0.478,3.631c-0.827,0.773 -1.738,1.61 -2.753,2.535c-11.445,10.429 -28.999,22.244 -44.753,27.532c-8.274,2.778 -15.898,4.253 -21.026,0.678c-6.327,-4.41 -7.491,-10.986 -7.685,-17.943c-0.064,-2.3 1.364,-6.1 3.694,-10.021c1.235,-2.076 2.764,-4.181 4.602,-6.096c6.52,-4.645 11.888,-6.727 15.038,-7.537l0.492,-0.041c4.279,-0.277 6.224,-1.754 6.573,-2.026c3.609,-2.802 3.571,-6.131 3.018,-8.5c-0.311,-1.331 -1.553,-5.938 -7.54,-6.449c-0.42,-0.036 -1.709,0.02 -3.696,0.385c-10.334,0.815 -18.642,5.522 -24.861,11.603c-5.24,3.842 -10.867,8.895 -16.586,15.531c-10.042,11.651 -23.072,25.443 -34.881,32.958c-3.248,2.067 -6.342,3.643 -9.22,4.321c-0.98,0.23 -1.909,0.393 -2.759,0.291c-0.185,-1.482 -0.513,-4.611 -0.379,-7.174c0.838,-16.096 7.213,-42.202 9.15,-63.956c3.301,0.019 6.593,0.036 9.769,-0.024c9.084,-0.171 17.349,-1.023 23.083,-3.335c4.266,-1.72 6.333,-6.579 4.613,-10.845c-1.72,-4.266 -6.579,-6.333 -10.845,-4.613c-5.492,2.214 -14.074,2.174 -23.049,2.177c-0.651,0 -1.303,-0 -1.958,-0.001c2.617,-16.226 8.411,-34.482 8.639,-39.096c0.394,-7.971 -5.463,-9.752 -8.379,-9.845c-1.381,-0.044 -4.894,0.139 -8.18,4.432c-0.413,0.539 -1.939,3.791 -3.598,9.084c-2.516,8.025 -6.753,22.377 -11.295,36.021c-2.011,0.191 -3.933,0.441 -5.738,0.769c-4.525,0.823 -7.531,5.165 -6.708,9.69c0.616,3.385 3.2,5.92 6.357,6.638c-1.712,4.395 -3.377,8.243 -4.92,11.165c-4.892,9.265 -10.434,21.107 -17.794,31.744c-6.589,9.523 -14.62,18.166 -25.405,22.204c-4.222,1.58 -6.703,-2.083 -8.467,-6.25c-2.699,-6.379 -3.409,-14.917 -1.799,-22.358c0.325,-1.501 0.739,-2.962 1.266,-4.339c2.295,-3.329 4.217,-6.137 5.054,-7.383c0.676,-1.008 0.997,-1.638 1.033,-1.713c3.043,-6.386 -2.041,-9.962 -2.966,-10.566c-1.2,-0.784 -5.518,-3.434 -10.18,0.828c-3.172,2.9 -5.724,6.603 -7.621,10.816c-4.088,5.98 -8.945,13.039 -10.57,15.31l-0.138,0.19c-7.26,7.625 -13.518,15.568 -20.039,20.853c-4.426,3.587 -8.884,5.854 -14.438,3.809c-5.623,-2.07 -13.238,-10.859 -13.708,-22.209c-0.293,-7.088 -1.754,-20.726 -1.094,-26.164c0.982,-8.097 2.655,-15.45 4.772,-22.467c4.115,0.229 11.838,0.555 18.092,0.224c5.334,-0.282 9.814,-1.325 11.959,-2.548c3.996,-2.277 5.391,-7.371 3.113,-11.366c-2.201,-3.863 -7.033,-5.295 -10.962,-3.329c-0.431,0.071 -3.108,0.5 -4.989,0.6c-3.661,0.193 -7.88,0.133 -11.407,0.009c5.268,-13.311 11.506,-26.612 16.829,-43.053c1.42,-4.388 1.983,-6.524 2.035,-6.873c0.758,-5.133 -2.448,-7.33 -3.255,-7.934c-2.238,-1.673 -4.963,-2.402 -8.27,-0.987c-0.238,0.101 -3.148,1.18 -4.825,5.394c-1.834,4.611 -10.299,27.99 -17.413,43.386c-0.762,1.65 -2.291,4.923 -4.377,9.241Zm823.745,38.229c-0.7,0.337 -1.399,0.768 -2.095,1.253c-5.423,3.784 -10.589,10.628 -11.838,14.452c-1.008,3.088 -1.649,5.924 -1.95,8.531c4.576,-5.536 9.302,-11.754 12.653,-17.486c1.349,-2.307 2.464,-4.508 3.159,-6.521l0.071,-0.229Zm-469.183,-55.341c-2.835,3.356 -5.63,6.883 -8.143,10.212c-8.722,11.555 -12.57,18.24 -17.284,29.454c7.774,-10.845 18.3,-26.364 25.427,-39.666Zm-254.452,-4.785c-3.424,0.106 -6.57,2.335 -7.676,5.782c-1.178,3.667 -0.503,6.173 0.186,7.719c1.38,3.098 3.836,4.958 7.369,5.359c1.439,0.164 3.358,0.007 5.448,-0.811c2.099,-0.821 4.742,-2.516 6.66,-4.205c2.391,-2.105 3.724,-4.494 4.13,-5.842c0.631,-2.095 0.429,-3.923 -0.08,-5.413c-0.777,-2.274 -3.445,-7.615 -11.646,-5.453c-1.803,0.475 -3.312,1.507 -4.391,2.864Z"/></g></g></svg>